<?xml version="1.0" encoding="UTF-8" standalone="no"?>
<svg width="65px" height="136px" viewBox="0 0 65 136" version="1.1" xmlns="http://www.w3.org/2000/svg" xmlns:xlink="http://www.w3.org/1999/xlink">
    <!-- Generator: Sketch 3.8.1 (29687) - http://www.bohemiancoding.com/sketch -->
    <title>stoyak</title>
    <desc>Created with Sketch.</desc>
    <defs></defs>
    <g id="Page-1" stroke="none" stroke-width="1" fill="none" fill-rule="evenodd">
        <g id="tara">
            <g id="stoyak">
                <path d="M64,136 L2,136 C0.7,136 0,135.3 0,135 L0,125 C0,123.7 0.7,123 2,123 L64,123 C64.3,123 65,123.7 65,125 L65,135 C65,135.3 64.3,136 64,136 L64,136 Z M3,133 L62,133 L62,126 L3,126 L3,133 L3,133 Z" id="Shape" fill="#252626"></path>
                <circle id="Oval" fill="#F63137" cx="48.2" cy="51.2" r="7.2"></circle>
                <g id="Group" transform="translate(24.000000, 0.000000)" fill="#252626">
                    <path d="M27.3723404,44.961585 C27.1808511,44.961585 26.9893617,44.961585 26.7978723,44.8640544 C25.2659574,44.08381 23.5425532,44.08381 22.0106383,44.8640544 C21.5319149,45.0591155 21.0531915,45.0591155 20.6702128,44.7665239 C20.287234,44.4739322 20,43.9862794 20,43.4986267 L20,4.58393599 C20,2.04814161 22.0106383,0 24.5,0 C26.9893617,0 29,2.04814161 29,4.58393599 L29,43.4986267 C29,43.9862794 28.712766,44.4739322 28.3297872,44.7665239 C27.8510638,44.8640544 27.6595745,44.961585 27.3723404,44.961585 L27.3723404,44.961585 Z M24.9592627,43.2782389 C25.4886745,43.2782389 25.4705882,43.1791745 26,43.2782389 L26,4.61887727 C26,3.72729774 25.3823529,2.93478261 24.5,2.93478261 C23.6176471,2.93478261 23,3.62823335 23,4.61887727 L23,43.2782389 C23.5294118,43.1791745 24.0588235,43.2782389 24.5,43.2782389 L24.9592627,43.2782389 Z" id="Shape"></path>
                    <path d="M27.6225195,125 L21.4658691,125 C20.6840723,125 20,124.324591 20,123.552695 L20,59.4853094 C20,59.0028743 20.2931738,58.5204391 20.6840723,58.2309781 C21.0749707,57.941517 21.6613184,57.941517 22.0522168,58.134491 C23.6158105,58.9063872 25.3748535,58.9063872 26.9384473,58.134491 C27.4270703,57.941517 27.9156934,57.941517 28.3065918,58.2309781 C28.6974902,58.5204391 28.9906641,59.0028743 28.9906641,59.4853094 L28.9906641,123.552695 C29.0883887,124.324591 28.4043164,125 27.6225195,125 L27.6225195,125 Z M26,123.057971 L26,58.8660064 C25,59.0605181 24,59.0605181 23,58.8660064 L23,123.057971 L26,123.057971 Z" id="Shape"></path>
                    <path d="M19,55 L1.42108547e-14,55 L1.42108547e-14,48 L19,48 L19,49 C18.3968254,50.0461538 18.2962963,50.8 18,51 C18.2962963,52.0923077 18.3968254,52.8461538 19,53 L19,55 L19,55 Z M2,52 L16,52 C15.9020979,51.8461538 15.9020979,51.6923077 16,51.6666667 C15.9020979,51.3076923 15.9020979,51.1923077 16,51 L2,51 L2,52 L2,52 Z" id="Shape"></path>
                    <path d="M24.2,60 C22.9,60 21.6,59.7 20.4,59.1 C18.2,58.1 16.5,56.1 15.8,53.9 C15.5,53 15.4,52.1 15.4,51.2 C15.4,50.3 15.5,49.4 15.8,48.5 C16.5,46.2 18.2,44.3 20.4,43.3 C22.8,42.1 25.6,42.1 28,43.3 C31,44.8 33,47.9 33,51.3 C33,54.7 31,57.8 28,59.3 C26.8,59.7 25.5,60 24.2,60 L24.2,60 Z M24.2,45.3 C23.3,45.3 22.5,45.5 21.7,45.9 C20.3,46.6 19.2,47.9 18.7,49.4 C18.5,50 18.4,50.6 18.4,51.2 C18.4,51.8 18.5,52.4 18.7,53 C19.2,54.5 20.3,55.8 21.7,56.5 C23.3,57.3 25.1,57.3 26.7,56.5 C28.7,55.5 30,53.5 30,51.2 C30,48.9 28.7,46.9 26.7,45.9 C25.9,45.5 25.1,45.3 24.2,45.3 L24.2,45.3 Z" id="Shape"></path>
                </g>
            </g>
        </g>
    </g>
</svg>