<?xml version="1.0" encoding="UTF-8" standalone="no"?>
<svg width="19px" height="100px" viewBox="0 0 19 100" version="1.1" xmlns="http://www.w3.org/2000/svg" xmlns:xlink="http://www.w3.org/1999/xlink">
    <!-- Generator: Sketch 3.8.1 (29687) - http://www.bohemiancoding.com/sketch -->
    <title>uran</title>
    <desc>Created with Sketch.</desc>
    <defs></defs>
    <g id="Page-1" stroke="none" stroke-width="1" fill="none" fill-rule="evenodd">
        <g id="tara" transform="translate(-7.000000, 0.000000)">
            <g id="uran" transform="translate(7.000000, 0.000000)">
                <path d="M6,94 C6,96.0909091 7.80952381,98 10,98 C12.1904762,98 14,96.0909091 14,94 L14,56 L6,56 L6,94 L6,94 Z" id="Shape" fill="#F63137"></path>
                <path d="M14,5 C14,2.90909091 12.1904762,1 10,1 C7.80952381,1 6,2.90909091 6,5 L6,43 L14,43 L14,5 L14,5 Z" id="Shape" fill="#F63137"></path>
                <path d="M9.54730199,100 C6.53034827,100 4,97.4888393 4,94.2745536 L4,56.5066964 C4,55.703125 4.68124761,55 5.45981631,55 L13.5374666,55 C14.3160353,55 14.9972829,55.703125 14.9972829,56.5066964 L14.9972829,94.2745536 C15.094604,97.3883929 12.5642557,100 9.54730199,100 L9.54730199,100 Z M7,58 L7,94.2860825 C7,95.7938144 8.11111111,97 9.5,97 C10.8888889,97 12,95.7938144 12,94.2860825 L12,58 L7,58 L7,58 Z" id="Shape" fill="#252626"></path>
                <path d="M13.4561404,45 L5.44736842,45 C4.6754386,45 4,44.296875 4,43.4933036 L4,5.72544643 C4,2.61160714 6.4122807,1.77635684e-15 9.5,1.77635684e-15 C12.5877193,1.77635684e-15 15,2.51116071 15,5.72544643 L15,43.4933036 C14.9035088,44.296875 14.2280702,45 13.4561404,45 L13.4561404,45 Z M7.09259259,42 L12,42 L12,5.71391753 C12,4.20618557 10.8888889,3 9.5,3 C8.11111111,3 7,4.20618557 7,5.71391753 L7,42 L7.09259259,42 Z" id="Shape" fill="#252626"></path>
                <path d="M18,58 L2,58 C0.7,58 0,57.2774194 0,56 L0,44 C0,42.7225806 0.7,42 2,42 L18,42 C18.3,42 19,42.7225806 19,44 L19,56 C19,57.2774194 18.4,58 18,58 L18,58 Z M3,55 L16,55 L16,45 L3,45 L3,55 L3,55 Z" id="Shape" fill="#252626"></path>
            </g>
        </g>
    </g>
</svg>