<?xml version="1.0" encoding="UTF-8" standalone="no"?>
<svg width="38px" height="55px" viewBox="0 0 38 55" version="1.1" xmlns="http://www.w3.org/2000/svg" xmlns:xlink="http://www.w3.org/1999/xlink">
    <!-- Generator: Sketch 3.8.1 (29687) - http://www.bohemiancoding.com/sketch -->
    <title>sklyanka</title>
    <desc>Created with Sketch.</desc>
    <defs></defs>
    <g id="Page-1" stroke="none" stroke-width="1" fill="none" fill-rule="evenodd">
        <g id="sklyanka" transform="translate(1.000000, 2.000000)" stroke="#252626" stroke-width="3">
            <path d="M35.1,9 C35.3,9 35.4,8.9 35.4,8.7 L35.4,0.5 C35.4,0.3 35.3,0.2 35.1,0.2 L0.8,0.2 C0.6,0.2 0.5,0.3 0.5,0.5 L0.5,8.7 C0.5,8.9 0.6,9 0.8,9 L5.1,9 C5.9,9 6.5,9.6 6.5,10.4 L6.5,10.4 C6.5,11.2 5.9,11.8 5.1,11.8 L2.7,11.8 C1.5,11.8 0.5,12.8 0.5,14 L0.5,48.7 C0.5,49.9 1.5,50.9 2.7,50.9 L33.1,50.9 C34.3,50.9 35.3,49.9 35.3,48.7 L35.3,14 C35.3,12.8 34.3,11.8 33.1,11.8 L30.7,11.8 C29.9,11.8 29.3,11.2 29.3,10.4 L29.3,10.4 C29.3,9.6 29.9,9 30.7,9 L35.1,9 L35.1,9 Z" id="Shape"></path>
        </g>
    </g>
</svg>