<?xml version="1.0" encoding="UTF-8" standalone="no"?>
<svg width="64px" height="34px" viewBox="0 0 64 34" version="1.1" xmlns="http://www.w3.org/2000/svg" xmlns:xlink="http://www.w3.org/1999/xlink">
    <!-- Generator: Sketch 3.8.1 (29687) - http://www.bohemiancoding.com/sketch -->
    <title>corob</title>
    <desc>Created with Sketch.</desc>
    <defs></defs>
    <g id="Page-1" stroke="none" stroke-width="1" fill="none" fill-rule="evenodd">
        <g id="corob">
            <rect id="Rectangle-path" fill="#F63137" x="1.9" y="2.5" width="59.9" height="30.1"></rect>
            <path d="M61.8,33.2 L1.9,33.2 C1.1,33.2 0.4,32.5 0.4,31.7 L0.4,1.6 C0.4,0.8 1.1,0.1 1.9,0.1 L61.8,0.1 C62.6,0.1 63.3,0.8 63.3,1.6 L63.3,31.7 C63.3,32.5 62.6,33.2 61.8,33.2 L61.8,33.2 Z M3.4,30.2 L60.3,30.2 L60.3,3.1 L3.4,3.1 L3.4,30.2 L3.4,30.2 Z" id="Shape" fill="#252626"></path>
            <path d="M55.9,5.6 C55.5,5.6 55.2,5.4 55,5 C54.8,4.5 55,3.9 55.4,3.7 L61.4,0.7 C61.9,0.5 62.5,0.7 62.7,1.1 C62.9,1.6 62.7,2.2 62.3,2.4 L56.3,5.4 C56.2,5.5 56,5.6 55.9,5.6 L55.9,5.6 Z" id="Shape" fill="#252626"></path>
            <path d="M45.6,10.7 C45.2,10.7 44.9,10.5 44.7,10.1 C44.5,9.6 44.7,9 45.1,8.8 L49.5,6.6 C50,6.4 50.6,6.6 50.8,7 C51,7.5 50.8,8.1 50.4,8.3 L46,10.6 C45.9,10.7 45.7,10.7 45.6,10.7 L45.6,10.7 Z" id="Shape" fill="#252626"></path>
            <path d="M19.3,23.9 C18.9,23.9 18.6,23.7 18.4,23.3 C18.2,22.8 18.4,22.2 18.8,22 L23.6,19.6 C24.1,19.4 24.7,19.6 24.9,20 C25.1,20.5 24.9,21.1 24.5,21.3 L19.7,23.7 C19.6,23.9 19.4,23.9 19.3,23.9 L19.3,23.9 Z" id="Shape" fill="#252626"></path>
            <path d="M10.9,28.1 C10.5,28.1 10.2,27.9 10,27.5 C9.8,27 10,26.4 10.4,26.2 L13.7,24.5 C14.2,24.3 14.8,24.5 15,24.9 C15.2,25.4 15,26 14.6,26.2 L11.4,28 C11.2,28.1 11.1,28.1 10.9,28.1 L10.9,28.1 Z" id="Shape" fill="#252626"></path>
            <path d="M1.9,32.7 C1.5,32.7 1.2,32.5 1,32.1 C0.8,31.6 1,31 1.4,30.8 L10.4,26.3 C10.9,26.1 11.5,26.3 11.7,26.7 C11.9,27.2 11.7,27.8 11.3,28 L2.3,32.5 C2.2,32.6 2.1,32.7 1.9,32.7 L1.9,32.7 Z" id="Shape" fill="#252626"></path>
        </g>
    </g>
</svg>