<?xml version="1.0" encoding="UTF-8" standalone="no"?>
<svg width="13px" height="14px" viewBox="0 0 13 14" version="1.1" xmlns="http://www.w3.org/2000/svg" xmlns:xlink="http://www.w3.org/1999/xlink">
    <!-- Generator: Sketch 3.8.1 (29687) - http://www.bohemiancoding.com/sketch -->
    <title>shar1</title>
    <desc>Created with Sketch.</desc>
    <defs></defs>
    <g id="Page-1" stroke="none" stroke-width="1" fill="none" fill-rule="evenodd">
        <g id="shar1">
            <circle id="Oval" fill="#F63137" cx="6.6" cy="7" r="4.6"></circle>
            <path d="M6.6,13.1 C4.1,13.1 1.8,11.5 0.9,9.1 C-0.3,5.9 1.3,2.4 4.5,1.2 C5.2,0.9 5.9,0.8 6.7,0.8 C9.2,0.8 11.5,2.4 12.4,4.8 C13,6.3 12.9,8 12.2,9.5 C11.5,11 10.3,12.1 8.8,12.7 C8.1,12.9 7.3,13.1 6.6,13.1 L6.6,13.1 Z M6.6,3.8 C6.2,3.8 5.9,3.9 5.5,4 C3.9,4.6 3.1,6.4 3.7,8 C4.3,9.6 6.1,10.4 7.7,9.8 C9.3,9.2 10.1,7.4 9.5,5.8 C9.1,4.6 7.9,3.8 6.6,3.8 L6.6,3.8 Z" id="Shape" fill="#252626"></path>
        </g>
    </g>
</svg>