<?xml version="1.0" encoding="UTF-8" standalone="no"?>
<svg width="52px" height="88px" viewBox="0 0 52 88" version="1.1" xmlns="http://www.w3.org/2000/svg" xmlns:xlink="http://www.w3.org/1999/xlink">
    <!-- Generator: Sketch 3.8.1 (29687) - http://www.bohemiancoding.com/sketch -->
    <title>sklyan1</title>
    <desc>Created with Sketch.</desc>
    <defs></defs>
    <g id="Page-1" stroke="none" stroke-width="1" fill="none" fill-rule="evenodd">
        <g id="sklyan1">
            <path d="M15.7,52.8 L4.5,74.6 L4.5,85.6 C5.2,86 6.1,86.2 7,86.2 L44.6,86.2 C48.6,86.2 51.1,81.9 49.1,78.4 L35.9,52.7 C35.8,52.6 35.8,52.5 35.8,52.4 L16,52.4 C15.8,52.6 15.8,52.7 15.7,52.8 L15.7,52.8 Z" id="Shape" fill="#F63137"></path>
            <path d="M44.6,87.7 L7,87.7 C4.6,87.7 2.4,86.5 1.2,84.4 C1.42108547e-14,82.3 1.42108547e-14,79.8 1.2,77.7 L14.4,52.1 C17.8,45.5 19.6,38.2 19.6,30.8 L19.6,8 C18.6,7.5 17.9,6.4 17.9,5.1 L17.9,3.3 C17.9,1.5 19.4,0.1 21.1,0.1 L30.5,0.1 C32.3,0.1 33.7,1.6 33.7,3.3 L33.7,5.1 C33.7,6.3 33,7.4 32,8 L32,30.7 C32,38.1 33.8,45.5 37.2,52 L50.4,77.7 C51.6,79.7 51.6,82.2 50.4,84.3 C49.2,86.5 47,87.7 44.6,87.7 L44.6,87.7 Z M21.1,3.1 C21,3.1 20.9,3.2 20.9,3.3 L20.9,5.1 C20.9,5.2 21,5.3 21.1,5.3 C21.9,5.3 22.6,6 22.6,6.8 L22.6,30.7 C22.6,38.6 20.7,46.4 17.1,53.4 L3.9,79.1 C3.2,80.3 3.2,81.7 3.9,82.8 C4.6,84 5.8,84.6 7.1,84.6 L44.7,84.6 C46,84.6 47.2,83.9 47.9,82.8 C48.6,81.6 48.6,80.3 47.9,79.1 L34.6,53.4 C31,46.4 29.1,38.6 29.1,30.7 L29.1,6.9 C29.1,6.1 29.8,5.4 30.6,5.4 C30.7,5.4 30.8,5.3 30.8,5.2 L30.8,3.4 C30.8,3.3 30.7,3.2 30.6,3.2 L21.1,3.2 L21.1,3.1 Z" id="Shape" fill="#252626"></path>
            <rect id="Rectangle-path" fill="#252626" x="16.1" y="51.5" width="19.5" height="2"></rect>
        </g>
    </g>
</svg>