<?xml version="1.0" encoding="UTF-8" standalone="no"?>
<svg width="56px" height="98px" viewBox="0 0 56 98" version="1.1" xmlns="http://www.w3.org/2000/svg" xmlns:xlink="http://www.w3.org/1999/xlink">
    <!-- Generator: Sketch 3.8.1 (29687) - http://www.bohemiancoding.com/sketch -->
    <title>sklyan2</title>
    <desc>Created with Sketch.</desc>
    <defs></defs>
    <g id="Page-1" stroke="none" stroke-width="1" fill="none" fill-rule="evenodd">
        <g id="sklyan2">
            <path d="M2.3,70.7 C2.3,85 13.9,96.6 28.2,96.6 C42.5,96.6 54.1,85 54.1,70.7 C54.1,68.1 53.7,65.6 53,63.2 L3.5,63.2 C2.7,65.5 2.3,68.1 2.3,70.7 L2.3,70.7 Z" id="Shape" fill="#F63137"></path>
            <path d="M28.2,97.3 C13.1,97.3 0.8,85 0.8,69.9 C0.8,67.2 1.2,64.5 2,62 C2.2,61.2 3.1,60.8 3.9,61 C4.7,61.2 5.1,62.1 4.9,62.9 C4.2,65.2 3.9,67.6 3.9,70 C3.9,83.4 14.8,94.4 28.3,94.4 C41.8,94.4 52.7,83.5 52.7,70 C52.7,67.6 52.3,65.2 51.7,62.9 C51.5,62.1 51.9,61.3 52.7,61 C53.5,60.8 54.3,61.2 54.6,62 C55.4,64.6 55.8,67.2 55.8,69.9 C55.5,85.1 43.3,97.3 28.2,97.3 L28.2,97.3 Z" id="Shape" fill="#252626"></path>
            <path d="M3.4,64 C3.3,64 3.1,64 3,63.9 C2.2,63.7 1.8,62.8 2,62 C4.6,53.3 11.5,46.4 20.2,43.8 L20.2,8.4 C18.7,8.3 17.5,7 17.5,5.5 L17.5,3 C17.5,1.4 18.8,0 20.5,0 L36,0 C37.6,0 39,1.3 39,3 L39,5.5 C39,7 37.8,8.3 36.3,8.4 L36.3,43.8 C44.9,46.4 51.8,53.3 54.5,62 C54.7,62.8 54.3,63.6 53.5,63.9 C52.7,64.1 51.9,63.7 51.6,62.9 C49.2,54.8 42.6,48.5 34.4,46.4 C33.7,46.2 33.3,45.6 33.3,44.9 L33.3,6.9 C33.3,6.1 34,5.4 34.8,5.4 L36.1,5.4 L36.1,3 L20.6,3 L20.6,5.4 L21.8,5.4 C22.6,5.4 23.3,6.1 23.3,6.9 L23.3,45 C23.3,45.7 22.8,46.3 22.2,46.5 C14,48.6 7.5,54.9 5,63 C4.7,63.6 4.1,64 3.4,64 L3.4,64 Z" id="Shape" fill="#252626"></path>
            <rect id="Rectangle-path" fill="#252626" x="3.4" y="61.5" width="49.5" height="2"></rect>
            <rect id="Rectangle-path" fill="#252626" x="3.4" y="61.5" width="49.5" height="2"></rect>
            <path d="M35,78.1 L34.8,78.1 C33.2,77.7 30.6,77.2 27.1,77 C24.4,76.9 21.9,76.9 19.7,77.2 C19.2,77.3 18.6,76.9 18.6,76.3 C18.5,75.8 18.9,75.3 19.5,75.2 C21.9,74.9 24.5,74.8 27.3,75 C30.1,75.1 32.7,75.5 35.4,76.1 C35.9,76.2 36.3,76.8 36.2,77.3 C35.8,77.8 35.4,78.1 35,78.1 L35,78.1 Z" id="Shape" fill="#252626"></path>
            <path d="M5.8,85 C5.6,85 5.4,84.9 5.2,84.8 C4.7,84.5 4.6,83.9 5,83.4 C6.5,81.3 8.2,79.6 10.2,78.3 C10.7,78 12,77.1 14.6,76.3 C15.1,76.1 15.7,76.4 15.9,77 C16.1,77.5 15.8,78.1 15.2,78.3 C13.7,78.8 12.4,79.4 11.3,80.1 C9.5,81.3 7.9,82.8 6.6,84.7 C6.4,84.8 6.1,85 5.8,85 L5.8,85 Z" id="Shape" fill="#252626"></path>
            <path d="M51.9,74.6 C51.7,74.6 51.5,74.5 51.3,74.4 C50.9,74.1 50.8,73.4 51.1,73 C51.8,72.1 52.4,71.1 53.1,70 C53.4,69.5 54,69.3 54.5,69.6 C55,69.9 55.2,70.5 54.9,71 C54.2,72.2 53.5,73.3 52.7,74.3 C52.4,74.5 52.1,74.6 51.9,74.6 L51.9,74.6 Z" id="Shape" fill="#252626"></path>
            <path d="M42.7,79.7 C41.4,79.7 40.1,79.4 38.9,79.1 C38.4,79 38,78.4 38.2,77.9 C38.3,77.4 38.9,77 39.4,77.2 C41.9,77.8 43.5,78 45.7,77.2 C46.6,76.9 47.4,76.4 48.2,75.9 C48.7,75.6 49.3,75.7 49.6,76.2 C49.9,76.7 49.8,77.3 49.3,77.6 C48.4,78.2 47.4,78.7 46.4,79.1 C45,79.5 43.8,79.7 42.7,79.7 L42.7,79.7 Z" id="Shape" fill="#252626"></path>
        </g>
    </g>
</svg>