<?xml version="1.0" encoding="UTF-8" standalone="no"?>
<svg width="156px" height="90px" viewBox="0 0 156 90" version="1.1" xmlns="http://www.w3.org/2000/svg" xmlns:xlink="http://www.w3.org/1999/xlink">
    <!-- Generator: Sketch 3.8.1 (29687) - http://www.bohemiancoding.com/sketch -->
    <title>ch1</title>
    <desc>Created with Sketch.</desc>
    <defs></defs>
    <g id="Page-1" stroke="none" stroke-width="1" fill="none" fill-rule="evenodd">
        <g id="ch1">
            <g id="Group">
                <polygon id="Shape" fill="#FFFFFF" points="150.7 22.1 134.4 16.3 116.1 7 116.1 19.4 94.1 4.5 85.1 19.1 74.9 4.5 59.5 22.1 52.7 4.5 38.3 23.3 33.8 2.2 18.1 22.1 15.8 7.6 1.5 15.1 56.7 84 62 80.3 67.6 86 72.1 82.1 80 87.8 85.3 81.8 88.3 84 153.6 22.5"></polygon>
                <path d="M80,89.3 C79.7,89.3 79.4,89.2 79.1,89 L72.2,84.1 L68.6,87.2 C68,87.7 67.1,87.7 66.5,87.1 L61.8,82.2 L57.6,85.2 C57,85.7 56.1,85.5 55.6,84.9 L0.4,16 C0.1,15.6 0,15.2 0.1,14.8 C0.2,14.4 0.5,14 0.9,13.8 L15.2,6.4 C15.6,6.2 16.1,6.2 16.6,6.4 C17,6.6 17.3,7 17.4,7.5 L19,18.5 L32.6,1.3 C33,0.8 33.6,0.6 34.1,0.8 C34.7,0.9 35.1,1.4 35.2,1.9 L39,19.8 L51.4,3.6 C51.7,3.2 52.3,2.9 52.8,3 C53.3,3.1 53.8,3.4 54,3.9 L60,19.3 L73.9,3.5 C74.2,3.2 74.6,3 75.1,3 C75.6,3 76,3.3 76.2,3.6 L85,16.4 L92.8,3.7 C93,3.4 93.4,3.1 93.8,3 C94.2,2.9 94.6,3 95,3.2 L114.6,16.5 L114.6,7 C114.6,6.5 114.9,6 115.3,5.7 C115.7,5.4 116.3,5.4 116.8,5.6 L135,15 L151.1,20.7 L153.9,21.1 C154.5,21.2 154.9,21.6 155.1,22.1 C155.3,22.7 155.1,23.3 154.7,23.6 L89.3,85 C88.8,85.5 88,85.5 87.4,85.1 L85.5,83.7 L81.1,88.7 C80.9,89.1 80.4,89.3 80,89.3 L80,89.3 Z M72.1,80.6 C72.4,80.6 72.7,80.7 73,80.9 L79.8,85.7 L84.2,80.7 C84.7,80.1 85.6,80 86.2,80.5 L88.2,82 L150.4,23.6 L150.3,23.6 L134,17.8 C133.9,17.8 133.9,17.8 133.8,17.7 L117.7,9.4 L117.7,19.4 C117.7,20 117.4,20.5 116.9,20.7 C116.4,21 115.8,20.9 115.4,20.6 L94.7,6.6 L86.5,19.9 C86.2,20.3 85.8,20.6 85.3,20.6 C84.8,20.6 84.3,20.4 84,20 L75,6.9 L60.6,23.1 C60.3,23.5 59.7,23.7 59.2,23.6 C58.7,23.5 58.3,23.2 58.1,22.7 L52.3,7.6 L39.5,24.3 C39.1,24.8 38.6,25 38,24.9 C37.4,24.8 37,24.3 36.9,23.7 L33.1,5.7 L19.2,23.1 C18.8,23.6 18.2,23.8 17.6,23.6 C17,23.4 16.6,23 16.5,22.4 L14.6,10 L3.9,15.6 L57,81.9 L61.1,79 C61.7,78.6 62.5,78.7 63,79.2 L67.6,84 L71,81 C71.4,80.8 71.8,80.6 72.1,80.6 L72.1,80.6 Z" id="Shape" fill="#252626"></path>
            </g>
            <path d="M80,89.3 C79.7,89.3 79.4,89.2 79.1,89 L72.2,84.1 L68.6,87.2 C68,87.7 67.1,87.7 66.5,87.1 L61.8,82.2 L57.6,85.2 C57,85.7 56.1,85.5 55.6,84.9 L0.4,16 C0.1,15.6 0,15.2 0.1,14.8 C0.2,14.4 0.5,14 0.9,13.8 L15.2,6.4 C15.6,6.2 16.1,6.2 16.6,6.4 C17,6.6 17.3,7 17.4,7.5 L19,18.5 L32.6,1.3 C33,0.8 33.6,0.6 34.1,0.8 C34.7,0.9 35.1,1.4 35.2,1.9 L39,19.8 L51.4,3.6 C51.7,3.2 52.3,2.9 52.8,3 C53.3,3.1 53.8,3.4 54,3.9 L60,19.3 L73.9,3.5 C74.2,3.2 74.6,3 75.1,3 C75.6,3 76,3.3 76.2,3.6 L85,16.4 L92.8,3.7 C93,3.4 93.4,3.1 93.8,3 C94.2,2.9 94.6,3 95,3.2 L114.6,16.5 L114.6,7 C114.6,6.5 114.9,6 115.3,5.7 C115.7,5.4 116.3,5.4 116.8,5.6 L135,15 L151.1,20.7 L153.9,21.1 C154.5,21.2 154.9,21.6 155.1,22.1 C155.3,22.7 155.1,23.3 154.7,23.6 L89.3,85 C88.8,85.5 88,85.5 87.4,85.1 L85.5,83.7 L81.1,88.7 C80.9,89.1 80.4,89.3 80,89.3 L80,89.3 Z M72.1,80.6 C72.4,80.6 72.7,80.7 73,80.9 L79.8,85.7 L84.2,80.7 C84.7,80.1 85.6,80 86.2,80.5 L88.2,82 L150.4,23.6 L150.3,23.6 L134,17.8 C133.9,17.8 133.9,17.8 133.8,17.7 L117.7,9.4 L117.7,19.4 C117.7,20 117.4,20.5 116.9,20.7 C116.4,21 115.8,20.9 115.4,20.6 L94.7,6.6 L86.5,19.9 C86.2,20.3 85.8,20.6 85.3,20.6 C84.8,20.6 84.3,20.4 84,20 L75,6.9 L60.6,23.1 C60.3,23.5 59.7,23.7 59.2,23.6 C58.7,23.5 58.3,23.2 58.1,22.7 L52.3,7.6 L39.5,24.3 C39.1,24.8 38.6,25 38,24.9 C37.4,24.8 37,24.3 36.9,23.7 L33.1,5.7 L19.2,23.1 C18.8,23.6 18.2,23.8 17.6,23.6 C17,23.4 16.6,23 16.5,22.4 L14.6,10 L3.9,15.6 L57,81.9 L61.1,79 C61.7,78.6 62.5,78.7 63,79.2 L67.6,84 L71,81 C71.4,80.8 71.8,80.6 72.1,80.6 L72.1,80.6 Z" id="Shape" fill="#252626"></path>
            <path d="M79.5,87 C79.4,87 79.4,87 79.5,87 C78.9,87 78.5,86.5 78.5,85.9 L84.1,19 C84.1,18.5 84.6,18 85.2,18.1 C85.7,18.1 86.2,18.6 86.1,19.2 L80.5,86.1 C80.4,86.7 80,87 79.5,87 L79.5,87 Z" id="Shape" fill="#252626"></path>
            <path d="M85.3,82.8 C85.2,82.8 85,82.8 84.9,82.7 C84.4,82.5 84.2,81.9 84.4,81.4 L115.2,19 C115.4,18.5 116,18.3 116.5,18.5 C117,18.7 117.2,19.3 117,19.8 L86.2,82.1 C86,82.6 85.6,82.8 85.3,82.8 L85.3,82.8 Z" id="Shape" fill="#252626"></path>
            <path d="M119.8,41.1 C119.6,41.1 119.4,41.1 119.3,41 C118.8,40.7 118.7,40.1 119,39.6 L122.6,33.7 C122.9,33.2 123.5,33.1 124,33.4 C124.5,33.7 124.6,34.3 124.3,34.8 L120.7,40.7 C120.5,41 120.1,41.1 119.8,41.1 L119.8,41.1 Z" id="Shape" fill="#252626"></path>
            <path d="M126.6,30.1 C126.4,30.1 126.2,30.1 126.1,30 C125.6,29.7 125.5,29.1 125.8,28.6 L133.6,15.9 C133.9,15.4 134.5,15.3 135,15.6 C135.5,15.9 135.6,16.5 135.3,17 L127.5,29.7 C127.2,29.9 126.9,30.1 126.6,30.1 L126.6,30.1 Z" id="Shape" fill="#252626"></path>
            <path d="M89.6,38.7 L89.5,38.7 C89,38.6 88.6,38.1 88.6,37.6 L89.4,31.6 C89.5,31.1 90,30.7 90.5,30.7 C91,30.8 91.4,31.3 91.4,31.8 L90.6,37.8 C90.5,38.3 90.1,38.7 89.6,38.7 L89.6,38.7 Z" id="Shape" fill="#252626"></path>
            <path d="M91.3,26 L91.2,26 C90.7,25.9 90.3,25.4 90.3,24.9 L91.2,18.4 C91.3,17.9 91.8,17.5 92.3,17.5 C92.8,17.6 93.2,18.1 93.2,18.6 L92.3,25.1 C92.2,25.7 91.8,26 91.3,26 L91.3,26 Z" id="Shape" fill="#252626"></path>
            <path d="M92.2,19.6 L92.1,19.6 C91.6,19.5 91.2,19 91.2,18.5 L93.1,4.4 C93.2,3.9 93.7,3.5 94.2,3.5 C94.7,3.6 95.1,4.1 95.1,4.6 L93.2,18.7 C93.1,19.2 92.7,19.6 92.2,19.6 L92.2,19.6 Z" id="Shape" fill="#252626"></path>
            <path d="M72.1,83.1 C71.6,83.1 71.2,82.8 71.1,82.3 L58.4,22.3 C58.3,21.8 58.6,21.2 59.2,21.1 C59.7,21 60.3,21.3 60.4,21.9 L73.1,81.9 C73.2,82.4 72.9,83 72.3,83.1 L72.1,83.1 L72.1,83.1 Z" id="Shape" fill="#252626"></path>
            <path d="M61.4,80.7 C61,80.7 60.6,80.5 60.5,80.1 L37.4,23.7 C37.2,23.2 37.4,22.6 37.9,22.4 C38.4,22.2 39,22.4 39.2,22.9 L62.3,79.3 C62.5,79.8 62.3,80.4 61.8,80.6 C61.7,80.7 61.6,80.7 61.4,80.7 L61.4,80.7 Z" id="Shape" fill="#252626"></path>
            <path d="M56.7,85 C56.4,85 56,84.8 55.9,84.5 L17.2,22.7 C16.9,22.2 17,21.6 17.5,21.3 C18,21 18.6,21.1 18.9,21.6 L57.6,83.4 C57.9,83.9 57.8,84.5 57.3,84.8 C57.1,84.9 56.9,85 56.7,85 L56.7,85 Z" id="Shape" fill="#252626"></path>
            <path d="M74.9,44.1 C74.3,44.1 73.9,43.7 73.9,43.1 L73.9,36.5 C73.9,35.9 74.3,35.5 74.9,35.5 C75.5,35.5 75.9,35.9 75.9,36.5 L75.9,43.1 C75.9,43.6 75.5,44.1 74.9,44.1 L74.9,44.1 Z" id="Shape" fill="#252626"></path>
            <path d="M74.9,31.7 C74.3,31.7 73.9,31.3 73.9,30.7 L73.9,24.2 C73.9,23.6 74.3,23.2 74.9,23.2 C75.5,23.2 75.9,23.6 75.9,24.2 L75.9,30.7 C75.9,31.2 75.5,31.7 74.9,31.7 L74.9,31.7 Z" id="Shape" fill="#252626"></path>
            <path d="M74.9,17.3 C74.3,17.3 73.9,16.9 73.9,16.3 L73.9,4.5 C73.9,3.9 74.3,3.5 74.9,3.5 C75.5,3.5 75.9,3.9 75.9,4.5 L75.9,16.3 C75.9,16.9 75.5,17.3 74.9,17.3 L74.9,17.3 Z" id="Shape" fill="#252626"></path>
        </g>
    </g>
</svg>