<?xml version="1.0" encoding="UTF-8" standalone="no"?>
<svg width="135px" height="131px" viewBox="0 0 135 131" version="1.1" xmlns="http://www.w3.org/2000/svg" xmlns:xlink="http://www.w3.org/1999/xlink">
    <!-- Generator: Sketch 3.8.1 (29687) - http://www.bohemiancoding.com/sketch -->
    <title>main shest</title>
    <desc>Created with Sketch.</desc>
    <defs></defs>
    <g id="Page-1" stroke="none" stroke-width="1" fill="none" fill-rule="evenodd">
        <g id="main-shest" transform="translate(2.000000, 2.000000)">
            <path d="M128.4,46.1 L111.7,43.2 C108.2,35.3 102.6,28.2 95.3,22.9 L96,6 L81.8,0.5 L70.9,13.5 C62,12.6 53.1,14 45.2,17.5 L30.9,8.5 L19,18 L24.9,34 C22.4,37.5 20.2,41.3 18.6,45.5 C17,49.7 16,54 15.5,58.3 L0.5,66.2 L2.9,81.2 L19.6,84.1 C23.1,92 28.7,99.1 36,104.4 L35.3,121.3 L49.5,126.8 L60.4,113.8 C69.3,114.7 78.2,113.3 86.1,109.8 L100.4,118.8 L112.2,109.2 L106.4,93.3 C108.9,89.8 111.1,86 112.7,81.8 C114.3,77.6 115.3,73.3 115.8,69 L130.8,61.1 L128.4,46.1 L128.4,46.1 Z M102,77.6 C94.3,97.7 71.7,107.7 51.7,99.9 C31.7,92.1 21.5,69.7 29.3,49.6 C37.1,29.5 59.6,19.5 79.6,27.3 C99.6,35.1 109.7,57.6 102,77.6 L102,77.6 Z" id="Shape" fill="#FFFFFF"></path>
            <path d="M112.6,81.8 C114.2,77.6 115.2,73.3 115.7,69 L130.7,61.1 L128.3,46.1 L111.6,43.2 C108.1,35.3 102.5,28.2 95.2,22.9 L96,6 L81.8,0.5 L70.9,13.5 C62,12.6 53.1,14 45.2,17.5 L30.9,8.5 L19,18 L24.9,34 C22.4,37.5 20.2,41.3 18.6,45.5 C17,49.7 16,54 15.5,58.3 L0.5,66.2 L2.9,81.2 L19.6,84.1 C23.1,92 28.7,99.1 36,104.4 L35.3,121.3 L49.5,126.8 L60.4,113.8 C69.3,114.7 78.2,113.3 86.1,109.8 L100.4,118.8 L112.2,109.2 L106.4,93.3 C108.9,89.8 111,86 112.6,81.8 L112.6,81.8 Z" id="Shape" stroke="#252626" stroke-width="3"></path>
            <circle id="Oval" stroke="#252626" stroke-width="2" stroke-linecap="round" stroke-dasharray="6,4,9,6,3" cx="65.6" cy="63.6" r="38.9"></circle>
            <circle id="Oval" stroke="#252626" stroke-width="3" cx="65.6" cy="63.6" r="21.2"></circle>
        </g>
    </g>
</svg>