<?xml version="1.0" encoding="utf-8"?>
<!-- Generator: Adobe Illustrator 18.1.1, SVG Export Plug-In . SVG Version: 6.00 Build 0)  -->
<svg version="1.1" id="Слой_2" xmlns="http://www.w3.org/2000/svg" xmlns:xlink="http://www.w3.org/1999/xlink" x="0px" y="0px"
	 viewBox="0 0 445.6 183.1" enable-background="new 0 0 445.6 183.1" xml:space="preserve">
<path fill="#FFFFFF" d="M220.2,48.9c0.2-2.3,0.2-4.7-0.2-7.1c-0.4-2.4-1.1-4.7-2-6.8l4.8-7.8l-5.2-6.4l-8.6,3.2
	c-3.8-2.7-8.3-4.5-13.1-5l-4.3-8.1l-8.1,1.3l-1.5,9c-4.4,2-8.1,5.1-10.9,8.9l-9.1-0.3l-2.9,7.7l7,5.8c-0.2,2.3-0.2,4.7,0.2,7.1
	c0.4,2.4,1.1,4.7,2,6.8l-4.8,7.8l5.2,6.4l8.6-3.2c3.8,2.7,8.3,4.5,13.1,5l4.3,8.1l8.1-1.3l1.5-9c4.4-2,8.1-5.1,10.9-8.9l9.1,0.3
	l2.9-7.7L220.2,48.9z M196.1,64.4c-10,1.6-19.5-5.2-21.1-15.2c-1.6-10,5.2-19.5,15.2-21.2c10-1.6,19.5,5.2,21.2,15.2
	C212.9,53.3,206.1,62.8,196.1,64.4z"/>
<path fill="#FFFFFF" d="M129.4,47.1l-16.7-2.9c-3.5-7.9-9.1-15-16.4-20.3L97,7L82.8,1.5l-10.9,13c-8.9-0.9-17.8,0.5-25.7,4l-14.3-9
	L20,19L25.9,35c-2.5,3.5-4.7,7.3-6.3,11.5C18,50.7,17,55,16.5,59.3l-15,7.9l2.4,15l16.7,2.9c3.5,7.9,9.1,15,16.4,20.3l-0.7,16.9
	l14.2,5.5l10.9-13c8.9,0.9,17.8-0.5,25.7-4l14.3,9l11.8-9.6l-5.8-15.9c2.5-3.5,4.7-7.3,6.3-11.5c1.6-4.2,2.6-8.5,3.1-12.8l15-7.9
	L129.4,47.1z M103,78.6c-7.7,20.1-30.3,30.1-50.3,22.3S22.5,70.7,30.3,50.6s30.3-30.1,50.3-22.3S110.7,58.6,103,78.6z"/>
<path fill="#FFFFFF" stroke="#252626" stroke-width="3" stroke-linecap="round" stroke-linejoin="round" stroke-miterlimit="10" d="
	M358.5,105.6L358.5,105.6c-3.9,0-7.2-3.2-7.2-7.2V34.7c0-3.9,3.2-7.2,7.2-7.2l0,0c3.9,0,7.2,3.2,7.2,7.2v63.7
	C365.7,102.4,362.5,105.6,358.5,105.6z"/>
<path fill="#FFFFFF" stroke="#252626" stroke-width="3" stroke-linecap="round" stroke-linejoin="round" stroke-miterlimit="10" d="
	M344,125.3c0,0-7.2-10.2-7.2-10.2V49.5c0-3.4,3.2-6.2,7.2-6.2l0,0c3.9,0,7.2,2.8,7.2,6.2v65.6L344,125.3z"/>
<path fill="#FFFFFF" stroke="#252626" stroke-width="3" stroke-linecap="round" stroke-linejoin="round" stroke-miterlimit="10" d="
	M329.7,105.6L329.7,105.6c-3.9,0-7.2-3.2-7.2-7.2V34.7c0-3.9,3.2-7.2,7.2-7.2l0,0c3.9,0,7.2,3.2,7.2,7.2v63.7
	C336.9,102.4,333.6,105.6,329.7,105.6z"/>
<circle fill="none" stroke="#252626" stroke-width="2" stroke-linecap="round" stroke-linejoin="round" stroke-miterlimit="10" stroke-dasharray="8" cx="66.6" cy="64.6" r="58.5"/>
<circle fill="none" stroke="#252626" stroke-width="2" stroke-linecap="round" stroke-linejoin="round" stroke-miterlimit="10" stroke-dasharray="8" cx="193.1" cy="46.2" r="43.2"/>
<polygon fill="#FFFFFF" points="268.8,143.6 281.9,181.6 417.4,181.6 430.4,143.6 "/>
<line fill="none" stroke="#252626" stroke-width="2" stroke-linecap="round" stroke-linejoin="round" stroke-miterlimit="10" x1="247.1" y1="181.6" x2="242.7" y2="181.6"/>
<line fill="none" stroke="#252626" stroke-width="2" stroke-linecap="round" stroke-linejoin="round" stroke-miterlimit="10" x1="264.3" y1="181.6" x2="261.3" y2="181.6"/>
<line fill="none" stroke="#252626" stroke-width="2" stroke-linecap="round" stroke-linejoin="round" stroke-miterlimit="10" x1="274.2" y1="181.6" x2="268.4" y2="181.6"/>
<line fill="none" stroke="#252626" stroke-width="2" stroke-linecap="round" stroke-linejoin="round" stroke-miterlimit="10" x1="176.6" y1="151" x2="172.2" y2="151"/>
<line fill="none" stroke="#252626" stroke-width="2" stroke-linecap="round" stroke-linejoin="round" stroke-miterlimit="10" x1="184.9" y1="151" x2="181.9" y2="151"/>
<line fill="none" stroke="#252626" stroke-width="2" stroke-linecap="round" stroke-linejoin="round" stroke-miterlimit="10" x1="221.1" y1="151" x2="193.1" y2="151"/>
<line fill="none" stroke="#252626" stroke-width="2" stroke-linecap="round" stroke-linejoin="round" stroke-miterlimit="10" x1="22.1" y1="151" x2="17.7" y2="151"/>
<line fill="none" stroke="#252626" stroke-width="2" stroke-linecap="round" stroke-linejoin="round" stroke-miterlimit="10" x1="31.4" y1="151" x2="28.4" y2="151"/>
<line fill="none" stroke="#252626" stroke-width="2" stroke-linecap="round" stroke-linejoin="round" stroke-miterlimit="10" x1="66.6" y1="151" x2="38.6" y2="151"/>
<line fill="none" stroke="#252626" stroke-width="2" stroke-linecap="round" stroke-linejoin="round" stroke-miterlimit="10" x1="81.7" y1="151" x2="71.1" y2="151"/>
<line fill="none" stroke="#252626" stroke-width="2" stroke-linecap="round" stroke-linejoin="round" stroke-miterlimit="10" x1="424.6" y1="181.6" x2="430.4" y2="181.6"/>
<line fill="none" stroke="#252626" stroke-width="2" stroke-linecap="round" stroke-miterlimit="10" x1="275.1" y1="152.5" x2="357.1" y2="152.5"/>
<line fill="none" stroke="#252626" stroke-width="2" stroke-linecap="round" stroke-miterlimit="10" x1="374.1" y1="152.5" x2="392.4" y2="152.5"/>
<line fill="none" stroke="#252626" stroke-width="2" stroke-linecap="round" stroke-miterlimit="10" x1="401.9" y1="152.5" x2="409.7" y2="152.5"/>
<line fill="none" stroke="#252626" stroke-width="2" stroke-linecap="round" stroke-miterlimit="10" x1="421.5" y1="169.7" x2="381.3" y2="169.7"/>
<line fill="none" stroke="#252626" stroke-width="2" stroke-linecap="round" stroke-miterlimit="10" x1="395.5" y1="169.7" x2="386.3" y2="169.7"/>
<line fill="none" stroke="#252626" stroke-width="2" stroke-linecap="round" stroke-miterlimit="10" x1="372.5" y1="169.7" x2="367.6" y2="169.7"/>
<line fill="none" stroke="#252626" stroke-width="2" stroke-linecap="round" stroke-miterlimit="10" x1="334.8" y1="169.7" x2="328.7" y2="169.7"/>
<line fill="none" stroke="#252626" stroke-width="2" stroke-linecap="round" stroke-miterlimit="10" x1="277.7" y1="169.7" x2="291.9" y2="169.7"/>
<line fill="none" stroke="#252626" stroke-width="2" stroke-linecap="round" stroke-miterlimit="10" x1="303" y1="169.7" x2="308.7" y2="169.7"/>
<polygon fill="none" stroke="#252626" stroke-width="3" stroke-linecap="round" stroke-linejoin="round" stroke-miterlimit="10" points="
	268.8,143.6 281.9,181.6 417.4,181.6 430.4,143.6 "/>
<polygon fill="none" stroke="#252626" stroke-width="3" stroke-linecap="round" stroke-linejoin="round" stroke-miterlimit="10" points="
	255.2,104.4 281.9,181.6 417.4,181.6 444.1,104.4 "/>
<line fill="none" stroke="#252626" stroke-width="2" stroke-linecap="round" stroke-miterlimit="10" x1="425.9" y1="104.4" x2="423.9" y2="115.5"/>
<line fill="none" stroke="#252626" stroke-width="2" stroke-linecap="round" stroke-miterlimit="10" x1="422.7" y1="120.9" x2="421.5" y2="126.5"/>
<path fill="none" stroke="#252626" stroke-width="3" stroke-linecap="round" stroke-linejoin="round" stroke-miterlimit="10" d="
	M113.6,82.8c1.6-4.2,2.6-8.5,3.1-12.8l15-7.9l-2.4-15l-16.7-2.9c-3.5-7.9-9.1-15-16.4-20.3L97,7L82.8,1.5l-10.9,13
	c-8.9-0.9-17.8,0.5-25.7,4l-14.3-9L20,19L25.9,35c-2.5,3.5-4.7,7.3-6.3,11.5C18,50.7,17,55,16.5,59.3l-15,7.9l2.4,15l16.7,2.9
	c3.5,7.9,9.1,15,16.4,20.3l-0.7,16.9l14.2,5.5l10.9-13c8.9,0.9,17.8-0.5,25.7-4l14.3,9l11.8-9.6l-5.8-15.9
	C109.9,90.8,112,87,113.6,82.8z"/>
<circle fill="none" stroke="#252626" stroke-width="2" stroke-linecap="round" stroke-miterlimit="10" stroke-dasharray="6,4,9,6,3" cx="66.6" cy="64.6" r="38.9"/>
<circle fill="none" stroke="#252626" stroke-width="3" stroke-linecap="round" stroke-linejoin="round" stroke-miterlimit="10" cx="66.6" cy="64.6" r="21.2"/>
<path fill="none" stroke="#252626" stroke-width="3" stroke-linecap="round" stroke-linejoin="round" stroke-miterlimit="10" d="
	M220,41.8c-0.4-2.4-1.1-4.7-2-6.8l4.8-7.8l-5.2-6.4l-8.6,3.2c-3.8-2.7-8.3-4.5-13.1-5l-4.3-8.1l-8.1,1.3l-1.5,9
	c-4.4,2-8.1,5.1-10.9,8.9l-9.1-0.3l-2.9,7.7l7,5.8c-0.2,2.3-0.2,4.7,0.2,7.1c0.4,2.4,1.1,4.7,2,6.8l-4.8,7.8l5.2,6.4l8.6-3.2
	c3.8,2.7,8.3,4.5,13.1,5l4.3,8.1l8.1-1.3l1.5-9c4.4-2,8.1-5.1,10.9-8.9l9.1,0.3l2.9-7.7l-7-5.8C220.4,46.6,220.3,44.2,220,41.8z"/>
<circle fill="none" stroke="#252626" stroke-width="2" stroke-linecap="round" stroke-miterlimit="10" stroke-dasharray="6,4,9,6,3" cx="193.1" cy="46.2" r="18.4"/>
<circle fill="none" stroke="#252626" stroke-width="3" stroke-linecap="round" stroke-linejoin="round" stroke-miterlimit="10" cx="193.1" cy="46.2" r="6.3"/>
<circle fill="none" stroke="#252626" stroke-width="2" stroke-linecap="round" stroke-linejoin="round" stroke-miterlimit="10" stroke-dasharray="4" cx="280.3" cy="61" r="5.1"/>
<circle fill="none" stroke="#252626" stroke-width="2" stroke-linecap="round" stroke-linejoin="round" stroke-miterlimit="10" stroke-dasharray="4" cx="141.2" cy="151" r="5.1"/>
<circle fill="#FFFFFF" stroke="#252626" stroke-width="2" stroke-linecap="round" stroke-linejoin="round" stroke-miterlimit="10" cx="406.6" cy="66.6" r="4.6"/>
<circle fill="none" stroke="#252626" stroke-width="3" stroke-linecap="round" stroke-linejoin="round" stroke-miterlimit="10" cx="406.6" cy="66.6" r="4.6"/>
<g>
	<path fill="none" stroke="#252626" stroke-width="2" stroke-linecap="round" stroke-linejoin="round" stroke-miterlimit="10" d="
		M418.3,68.4c1.8,0.5,0.7,4.4,2.5,4.9c1.8,0.5,2.9-3.3,4.7-2.8c1.8,0.5,0.7,4.4,2.5,4.9c1.8,0.5,2.9-3.3,4.7-2.8s0.7,4.4,2.5,4.9"/>
</g>
<line fill="none" stroke="#252626" stroke-width="2" stroke-linecap="round" stroke-linejoin="round" stroke-miterlimit="10" x1="407.3" y1="54.9" x2="412.7" y2="39.7"/>
<g>
	<g>
		
			<line fill="none" stroke="#252626" stroke-width="2" stroke-linecap="round" stroke-linejoin="round" x1="417.9" y1="61" x2="420.4" y2="59.4"/>
		
			<line fill="none" stroke="#252626" stroke-width="2" stroke-linecap="round" stroke-linejoin="round" stroke-dasharray="4.6749,4.6749" x1="424.4" y1="57" x2="430.4" y2="53.3"/>
		
			<line fill="none" stroke="#252626" stroke-width="2" stroke-linecap="round" stroke-linejoin="round" x1="432.4" y1="52.1" x2="435" y2="50.5"/>
	</g>
</g>
<circle fill="none" stroke="#252626" stroke-width="2" stroke-linecap="round" stroke-miterlimit="10" cx="305.2" cy="121.5" r="3.4"/>
<circle fill="none" stroke="#252626" stroke-width="2" stroke-linecap="round" stroke-miterlimit="10" cx="384.7" cy="116.2" r="3.4"/>
<line fill="none" stroke="#252626" stroke-width="2" stroke-linecap="round" stroke-miterlimit="10" x1="349.6" y1="143" x2="365.7" y2="119.6"/>
<line fill="none" stroke="#252626" stroke-width="2" stroke-linecap="round" stroke-miterlimit="10" x1="355.7" y1="143" x2="362" y2="133.8"/>
<line fill="none" stroke="#252626" stroke-width="2" stroke-linecap="round" stroke-miterlimit="10" x1="334.8" y1="143" x2="322.5" y2="118.1"/>
<line fill="none" stroke="#252626" stroke-width="2" stroke-linecap="round" stroke-miterlimit="10" x1="329.7" y1="143" x2="324.5" y2="133.8"/>
<line fill="none" stroke="#252626" stroke-width="2" stroke-linecap="round" stroke-miterlimit="10" x1="315.4" y1="134.8" x2="312.2" y2="129"/>
<line fill="none" stroke="#252626" stroke-width="2" stroke-linecap="round" stroke-miterlimit="10" x1="372.5" y1="132.6" x2="375.4" y2="127.9"/>
</svg>
