<?xml version="1.0" encoding="UTF-8" standalone="no"?>
<svg width="45px" height="118px" viewBox="0 0 45 118" version="1.1" xmlns="http://www.w3.org/2000/svg" xmlns:xlink="http://www.w3.org/1999/xlink">
    <!-- Generator: Sketch 3.8.1 (29687) - http://www.bohemiancoding.com/sketch -->
    <title>puf</title>
    <desc>Created with Sketch.</desc>
    <defs></defs>
    <g id="Page-1" stroke="none" stroke-width="1" fill="none" fill-rule="evenodd">
        <g id="puf" transform="translate(1.000000, 2.000000)" stroke="#252626">
            <path d="M18.9,10.8 L5.4,25.6 C4.8,26.6 4.1,28.1 3.7,29.9 C3.4,31 3.3,32 3.3,32.9 C2.4,58 1.4,83 0.5,108.1 C0.4,111.5 3.1,114.4 6.6,114.4 L35.5,114.4 C39,114.4 41.8,111.4 41.5,107.9 C40.2,89.7 38.8,71.5 37.5,53.4 C38.9,52 40.2,50.5 41.6,49.1 C41.7,47.8 41.7,46.5 41.8,45.1 C42,41.2 41.1,37.4 39.3,34 C38,31.6 36.3,29 34.1,26.5 C31.8,23.8 29.5,21.7 27.4,20 C30.1,16.9 32.8,13.8 35.6,10.8 C35,9.9 34.5,8.9 33.9,8 C34.7,6.3 35.4,4.7 36.2,3 C34.7,1.7 34.8,1.8 33.3,0.5 C31.7,1.6 30,2.6 28.4,3.7 C27.7,3.4 27,3.1 26.2,2.8 C22.7,6.3 22.4,6.6 18.8,10.1 L18.9,10.8 L18.9,10.8 Z" id="Shape" stroke-width="3"></path>
            <path d="M18.7,10.1 L28.7,18.5" id="Shape" stroke-width="2"></path>
            <path d="M27.9,4.2 L33.5,8.5" id="Shape" stroke-width="2"></path>
            <path d="M22.3,48.2 C28.6,51.7 34.3,53 37.7,53.6" id="Shape" stroke-width="2"></path>
            <path d="M16.2,44.2 C16.7,44.6 17.3,45 17.9,45.4 C18.2,45.6 18.6,45.9 18.9,46.1" id="Shape" stroke-width="2"></path>
            <path d="M10,38.4 C10.5,39 11.1,39.6 11.7,40.2" id="Shape" stroke-width="2"></path>
            <path d="M6.3,33.8 C6.8,34.6 7.4,35.4 8.1,36.2" id="Shape" stroke-width="2"></path>
            <path d="M19.6,39.7 C22.2,41.5 25.2,43.2 28.4,44.6 C33.2,46.7 37.6,47.9 41.4,48.6" id="Shape" stroke-width="2"></path>
            <path d="M12.7,34.3 C13.7,35.2 14.7,36.1 15.8,37" id="Shape" stroke-width="2"></path>
            <path d="M8,29.4 C8.6,30.1 9.3,30.9 10,31.7" id="Shape" stroke-width="2"></path>
        </g>
    </g>
</svg>