<svg xmlns="http://www.w3.org/2000/svg" style="display: none;">
  
    <symbol id="icon-close" viewBox="0 0 512 512">
      <path d="m432 453c0 0 47-47 47-47 0 0-179-178-179-178 0 0 177-177 177-177 0 0-48-49-48-49 0 0-178 177-178 177 0 0-179-179-179-179 0 0-46 47-46 47 0 0 179 179 179 179 0 0-184 183-184 183 0 0 49 49 49 49 0 0 184-183 184-183 0 0 178 178 178 178z"/>
    </symbol>
  
    <symbol id="icon-check" viewBox="0 0 512 512">
      <path d="m218 491l-205-252 67-54 130 167 218-331 71 46z"/>
    </symbol>
  
    <symbol id="icon-mail" viewBox="0 0 512 512">
      <path d="m466 457c12 0 22-3 30-11l-145-145c-3 3-7 5-10 7-10 8-20 14-26 18-7 5-16 10-27 14-11 5-22 7-31 7l-1 0c-10 0-20-2-31-7-12-5-20-9-27-14-7-4-16-10-27-18-2-2-6-5-10-7l-145 145c8 8 18 11 30 11z m-437-248c-11-7-20-16-29-25l0 221 128-128c-26-17-59-40-99-68z m455 0c-40 26-72 49-100 68l128 128 0-220c-9 8-18 17-28 24z m-18-154l-420 0c-15 0-26 5-34 15-8 10-12 22-12 37 0 12 5 25 16 39 10 14 21 25 33 32 6 5 26 19 58 41 18 12 33 23 47 32 11 8 20 14 29 20 0 1 2 1 4 3 2 1 5 3 8 5 6 5 11 8 15 11 5 3 10 6 15 9 6 4 12 6 17 8 5 2 10 3 14 3 4 0 9-1 14-3 5-1 11-4 17-8 5-3 10-6 15-9 4-3 9-6 15-11 3-2 6-4 8-5 2-2 4-2 4-3 7-4 16-11 29-20 24-16 59-41 105-73 14-9 26-21 35-34 9-14 14-29 14-44 0-13-4-23-14-32-9-9-19-13-32-13z"/>
    </symbol>
  
    <symbol id="icon-phone" viewBox="0 0 512 512">
      <path d="m511 403c1 9-1 16-7 22l-72 72c-4 3-8 6-13 9-5 2-11 4-16 5 0 0-1 0-3 0-2 0-4 0-7 0-7 0-18-1-33-4-16-2-34-8-56-17-23-9-48-23-76-41-28-19-58-44-90-76-25-25-46-49-63-72-16-22-30-43-40-63-10-19-17-36-23-52-4-16-8-29-10-41-2-11-2-20-2-26 0-7 1-10 1-11 0-5 2-10 4-16 3-5 6-9 10-12l72-72c5-5 11-8 17-8 5 0 9 1 13 4 3 3 6 6 9 10l58 110c3 6 4 12 2 19-1 7-4 13-9 17l-26 27c-1 1-2 2-2 3-1 2-1 3-1 5 1 7 5 16 10 26 4 8 11 19 20 31 9 13 21 27 38 43 16 17 31 30 44 39 12 9 23 16 31 20 9 5 15 7 20 8l6 1c1 0 2 0 4 0 2-1 3-2 3-2l31-32c7-5 14-8 23-8 6 0 11 1 15 3l0 0 105 62c7 4 12 10 13 17z"/>
    </symbol>
  
    <symbol id="icon-people" viewBox="0 0 512 512">
      <path d="m312 254c45-22 78-67 78-119 0-74-62-135-136-135-74 0-132 61-132 135 0 55 33 100 78 119-87 26-148 110-148 210 128 64 280 64 408 0 0-100-61-184-148-210z"/>
    </symbol>

    <symbol id="icon-user" viewBox="0 0 512 512">
        <path d="m256 256c35 0 66-12 91-38 25-24 37-55 37-90 0-35-12-65-37-91-25-24-56-37-91-37-35 0-66 13-90 37-26 26-38 56-38 91 0 35 12 66 38 90 24 26 55 38 90 38z m233 135c0-11-2-23-4-36-2-13-5-25-9-36-4-11-8-22-14-33-6-10-13-19-21-27-8-7-17-13-29-18-11-4-23-6-37-6-2 0-6 2-14 7-7 5-15 10-25 16-9 6-21 11-36 16-14 5-29 7-44 7-15 0-30-2-45-7-14-5-26-10-36-16-9-6-17-11-24-16-8-5-12-7-14-7-14 0-26 2-38 6-11 5-20 11-28 18-8 8-15 17-21 27-6 11-10 22-14 33-4 11-6 23-9 36-2 13-4 25-5 36 0 11-1 23-1 35 0 26 8 47 25 63 16 15 37 23 64 23l292 0c27 0 48-8 64-23 17-16 25-37 25-63 0-12-1-24-2-35z"/>
    </symbol>
  
    <symbol id="icon-news-eye" viewBox="0 0 512 512">
      <path d="m256 410c-143 0-256-67-256-154 0-87 113-154 256-154 143 0 256 67 256 154 0 87-113 154-256 154z m0-256c-120 0-205 53-205 102 0 49 85 102 205 102 120 0 205-53 205-102 0-49-85-102-205-102z m102 102c0 57-45 102-102 102-57 0-102-45-102-102 0-57 45-102 102-102 57 0 102 45 102 102z"/>
    </symbol>
  
    <symbol id="icon-arrow" viewBox="0 0 512 512">
      <path d="m370 509c-12 0-26-4-36-14l-242-238 242-240c20-20 52-20 70 0 20 20 20 52 0 70l-170 168 170 168c20 20 20 52 0 70-8 12-22 16-34 16z"/>
    </symbol>
  
    <symbol id="icon-photo" viewBox="0 0 512 512">
      <path d="m435 77l0-51-153 0 0 51-205 0c-44 0-77 33-77 77l0 256c0 41 33 76 77 76l358 0c44 0 77-35 77-76l0-256c0-44-33-77-77-77z m26 333c0 12-13 25-26 25l-358 0c-13 0-26-13-26-25l0-256c0-13 13-26 26-26l358 0c13 0 26 13 26 26z m-205-256c-72 0-128 56-128 128 0 71 56 128 128 128 72 0 128-57 128-128 0-72-56-128-128-128z m0 204c-44 0-77-33-77-76 0-44 33-77 77-77 44 0 77 33 77 77 0 43-33 76-77 76z"/>
    </symbol>
  
    <symbol id="icon-plus" viewBox="0 0 512 512">
      <path d="m482 282c0 0 0-84 0-84 0 0-198 0-198 0 0 0 0-198 0-198 0 0-85 0-85 0 0 0 0 198 0 198 0 0-199 0-199 0 0 0 0 84 0 84 0 0 199 0 199 0 0 0 0 204 0 204 0 0 85 0 85 0 0 0 0-204 0-204 0 0 198 0 198 0z"/>
    </symbol>
  
    <symbol id="icon-quote" viewBox="0 0 512 512">
      <path d="m504 235c0 0-194-208-194-208 0 0-80 54-80 54 0 0 112 173 112 173 0 0-110 171-110 171 0 0 81 57 81 57 0 0 191-208 191-208 0 0 0-39 0-39z m-231 0c0 0-193-208-193-208 0 0-80 54-80 54 0 0 113 173 113 173 0 0-111 171-111 171 0 0 81 57 81 57 0 0 190-208 190-208 0 0 0-39 0-39z"/>
    </symbol>
  
    <symbol id="icon-sign-in-pop" viewBox="0 0 512 512">
      <path d="m209 433c0-1-1-3 0-4 0-1-1-2-3-3-2-1-2-2-2-2 0-1-1-1-4-1-3 0-4-1-4-1l-101 0c-15 0-27-5-37-15-10-10-16-23-16-37l0-228c0-15 5-27 16-37 10-10 22-16 37-16l104 0c3 0 5 0 7-2 1-1 2-3 3-6 0-3 1-6 1-8 0-2 0-5 0-8 0-4-1-6-1-7 0-3-1-5-3-7-2-2-4-3-7-3l-104 0c-26 0-48 9-67 27-18 19-27 41-27 67l0 229c0 26 9 48 27 66 19 19 41 28 67 28l104 0c3 0 5-1 7-2 1-2 2-4 3-7 1-3 1-5 1-7 0-3 0-5 0-9-1-4-1-6-1-7z m296-191l-177-178c-4-4-9-6-15-6-5 0-10 2-14 6-4 4-6 9-6 15l0 94-146 0c-6 0-11 2-15 6-4 4-6 9-6 14l0 125c0 5 2 10 6 14 4 4 9 6 15 6l145 0 0 94c0 6 2 11 6 15 4 4 9 6 15 6 5 0 10-2 14-6l178-177c4-4 6-9 6-14 0-5-2-10-6-14z"/>
    </symbol>
  
    <symbol id="icon-delete" viewBox="0 0 512 512">
      <path d="m433 97l-48 0 0-65c0-17-15-32-32-32l-194 0c-17 0-32 15-32 32l0 65-48 0c-18 0-32 10-32 28 0 18 14 32 32 32l0 323c0 17 14 32 32 32l290 0c18 0 32-15 32-32l0-323c18 0 32-14 32-32 0-18-14-28-32-28z m-256-58l158 0c4 0 8 4 8 8l0 50-174 0 0-50c0-4 3-8 8-8z m221 409c0 12-15 21-34 21-19 0-35-9-35-21l0-254c0-12 16-21 35-21 19 0 34 9 34 21z m-104 0c0 12-16 21-35 21-19 0-34-9-34-21l0-254c0-12 15-21 34-21 19 0 35 9 35 21z m-105 0c0 12-15 21-34 21-19 0-35-9-35-21l0-254c0-12 16-21 35-21 19 0 34 9 34 21z"/>
    </symbol>
  
    <symbol id="icon-vba-logo" viewBox="0 0 512 512">
      <path d="m97 506l-5-9 18-170c1-19 6-37 13-54 7-16 16-30 28-42 13-12 27-22 45-28 48-18 97-11 117-5 13 4 26 10 36 17 10 7 18 16 24 26 6 10 9 22 9 34 0 12-3 24-8 36-6 11-16 21-31 27l0 1c18 3 32 10 40 22 8 13 12 25 12 38 0 20-4 37-12 52-34 57-123 68-286 55z m193-69c16-11 20-24 20-35 0-11-5-20-13-26-9-6-21-10-35-10l-22 0 4-44 18 0c12 0 21-4 28-11 7-7 10-16 10-27 0-8-3-16-9-24-9-11-41-20-68-5-7 4-13 9-18 16-4 8-8 16-10 25-3 9-5 20-6 31l-14 122c1 0 79 13 115-12z m108-436c-68 51-147 85-267 93 0 0-1 25 5 41 64 17 218-3 282-48 8-31-6-69-20-86z"/>
    </symbol>
  
    <symbol id="icon-minus" viewBox="0 0 512 512">
      <path d="m483 295c0 0 0-85 0-85 0 0-482 0-482 0 0 0 0 85 0 85 0 0 482 0 482 0z"/>
    </symbol>
  
    <symbol id="icon-view-card" viewBox="0 0 512 512">
      <path d="m47 0c0 0 139 0 139 0 26 0 47 21 47 47 0 0 0 139 0 139 0 26-21 47-47 47 0 0-139 0-139 0-26 0-47-21-47-47 0 0 0-139 0-139 0-26 21-47 47-47z m279 0c0 0 139 0 139 0 26 0 47 21 47 47 0 0 0 139 0 139 0 26-21 47-47 47 0 0-139 0-139 0-26 0-47-21-47-47 0 0 0-139 0-139 0-26 21-47 47-47z m-279 279c0 0 139 0 139 0 26 0 47 21 47 47 0 0 0 139 0 139 0 26-21 47-47 47 0 0-139 0-139 0-26 0-47-21-47-47 0 0 0-139 0-139 0-26 21-47 47-47z m279 0c0 0 139 0 139 0 26 0 47 21 47 47 0 0 0 139 0 139 0 26-21 47-47 47 0 0-139 0-139 0-26 0-47-21-47-47 0 0 0-139 0-139 0-26 21-47 47-47z"/>
    </symbol>
  
    <symbol id="icon-arrow-paginator" viewBox="0 0 512 512">
      <path d="m506 279l-454 0 0-46 454 0z m-500-23l200-186 32 32-164 154 164 150-32 36z"/>
    </symbol>
  
    <symbol id="icon-basket" viewBox="0 0 512 512">
      <path d="m410 410c-29 0-52 22-52 51 0 29 23 51 52 51 28 0 51-22 51-51 0-29-23-51-51-51z m-256 0c-29 0-52 22-52 51 0 29 23 51 52 51 28 0 51-22 51-51 0-29-23-51-51-51z m28-128l189 0c19 0 35-10 45-26l93-166c3-7 3-7 3-13 0-16-10-26-26-26l-377 0-26-51-83 0 0 51 51 0 93 195-35 61c-3 7-7 19-7 26 0 29 23 51 52 51l307 0 0-51-298 0c-3 0-3-3-3-7l0-3z"/>
    </symbol>
  
    <symbol id="icon-help-circled" viewBox="0 0 512 512">
      <path d="m253 20c65 0 120 22 167 67c46 45 70 100 72 165c0 65-22 121-68 167c-45 47-100 71-165 73c-65 0-121-22-167-68c-47-45-71-100-72-165c-1-65 21-121 67-167c46-47 101-71 166-72m-1 379c10 0 19-3 25-9c6-7 10-15 10-24c0-11-2-19-9-26c-6-6-15-9-25-9c0 0-1 0-1 0c-10 0-18 3-24 9c-7 6-10 14-11 24c0 10 3 18 10 25c6 6 14 10 24 10c0 0 1 0 1 0m85-168c9-11 13-24 13-40c0-26-9-46-27-59c-18-13-41-19-69-19c-22 0-40 4-53 13c-24 14-36 39-37 75c0 0 0 2 0 2c0 0 56 0 56 0c0 0 0-2 0-2c0-9 3-18 8-28c6-8 15-12 28-12c14 0 23 3 27 10c5 7 8 14 8 23c0 6-3 13-8 20c-3 4-7 8-11 10c0 0-3 2-3 2c-2 2-4 4-8 6c-3 2-7 5-10 8c-4 2-7 5-11 8c-4 3-7 6-9 9c-4 7-7 20-9 40c0 0 0 4 0 4c0 0 56 0 56 0c0 0 0-2 0-2c0-4 0-9 2-14c2-7 6-13 14-19c0 0 14-9 14-9c16-12 25-20 29-26"/>
    </symbol>
  
    <symbol id="icon-menu-catalog" viewBox="0 0 512 512">
      <path d="m407 437l-116-204 0-189 6 0c8 0 14-6 14-14l0-16c0-7-6-13-14-13l-81 0c-8 0-14 6-14 13l0 16c0 8 6 14 14 14l5 0 0 189-116 204c-19 33 5 74 42 74l217 0c38 0 62-41 43-74z"/>
    </symbol>
  
    <symbol id="icon-search" viewBox="0 0 512 512">
      <path d="m498 437l-111-110c-1-1-1-1-2-2 22-33 35-73 35-115 0-116-94-210-210-210-116 0-210 94-210 210 0 116 94 209 210 209 42 0 82-12 115-34 0 0 1 1 1 1l111 111c17 17 44 17 61 0 16-16 16-43 0-60z m-288-90c-76 0-137-62-137-137 0-76 61-137 137-137 75 0 137 61 137 137 0 75-62 137-137 137z"/>
    </symbol>
  
    <symbol id="icon-list-vid" viewBox="0 0 512 512">
      <path d="m465 93l-418 0c-26 0-47-21-47-46 0-26 21-47 47-47l418 0c26 0 47 21 47 47 0 25-21 46-47 46z m0 140l-418 0c-26 0-47-21-47-47 0-25 21-46 47-46l418 0c26 0 47 21 47 46 0 26-21 47-47 47z m0 139l-418 0c-26 0-47-21-47-46 0-26 21-47 47-47l418 0c26 0 47 21 47 47 0 25-21 46-47 46z m0 140l-418 0c-26 0-47-21-47-47 0-25 21-46 47-46l418 0c26 0 47 21 47 46 0 26-21 47-47 47z"/>
    </symbol>
  
    <symbol id="icon-arrow-list" viewBox="0 0 512 512">
      <path d="m256 410c-15 0-26-6-36-16l-205-205c-20-20-20-51 0-71 21-21 52-21 72 0l169 169 169-169c20-21 51-21 72 0 20 20 20 51 0 71l-205 205c-10 10-21 16-36 16z"/>
    </symbol>
  
    <symbol id="icon-doc" viewBox="0 0 512 512">
      <path d="m419 0l-326 0c-21 0-37 16-37 37l0 438c0 21 16 37 37 37l326 0c21 0 37-16 37-37l0-438c0-21-16-37-37-37z m-59 400l-208 0 0-32 208 0z m-208-96l208 0 0 32-208 0z m0-64l208 0 0 32-208 0z m80-48l-80 0 0-80 80 0z"/>
    </symbol>
  
    <symbol id="icon-download-scheme" viewBox="0 0 512 512">
      <path d="m421 1l-330 0c-20 0-36 16-36 37l0 436c0 21 16 37 36 37l330 0c21 0 37-16 37-37l0-436c-1-21-17-37-37-37z m-165 430c0 0-105-189-105-246 0-58 47-105 105-105 58 0 105 47 105 105 0 58-105 246-105 246z m41-246c0 23-18 41-41 41-23 0-41-18-41-41 0-23 18-41 41-41 23 0 41 18 41 41z"/>
    </symbol>

    <symbol id="icon-exit-lk" viewBox="0 0 24 24">
        <path d="M10.09 15.59L11.5 17l5-5-5-5-1.41 1.41L12.67 11H3v2h9.67l-2.58 2.59zM19 3H5c-1.11 0-2 .9-2 2v4h2V5h14v14H5v-4H3v4c0 1.1.89 2 2 2h14c1.1 0 2-.9 2-2V5c0-1.1-.9-2-2-2z"/>
    </symbol>


</svg>
