<svg version="1" xmlns="http://www.w3.org/2000/svg" viewBox="0 0 35.8 31.8"><switch><g><path fill="none" stroke="#fff" stroke-width="1.8" stroke-linecap="round" stroke-linejoin="round" stroke-miterlimit="10" d="M27.8 25.1c-2.7 3.5-7 5.8-11.8 5.8-8.3 0-15-6.7-15-15S7.7.9 16 .9s15 6.7 15 15V17"/><path fill="#fff" d="M12.6 21.6c-.9 0-1.6.7-1.6 1.6 0 .9.7 1.6 1.6 1.6s1.6-.7 1.6-1.6c0-.9-.7-1.6-1.6-1.6zM7.8 8.8v1.6h1.6l2.9 6.1-1.1 1.9c-.1.2-.2.6-.2.8 0 .9.7 1.6 1.6 1.6h9.6v-1.6h-9.3c-.1 0-.2-.1-.2-.2v-.1l.7-1.4h5.9c.6 0 1.1-.3 1.4-.8l2.9-5.2c.2-.2.2-.2.2-.4 0-.5-.3-.8-.8-.8H11.2l-.7-1.6H7.8zm12.8 12.8c-.9 0-1.6.7-1.6 1.6 0 .9.7 1.6 1.6 1.6s1.6-.7 1.6-1.6c0-.9-.7-1.6-1.6-1.6z"/><path fill="none" stroke="#fff" stroke-width="1.8" stroke-linecap="round" stroke-linejoin="round" stroke-miterlimit="10" d="M34.8 12.5l-3.4 5.4-5-4"/></g></switch></svg>