<?xml version="1.0" encoding="utf-8"?>
<!-- Generator: Adobe Illustrator 18.1.1, SVG Export Plug-In . SVG Version: 6.00 Build 0)  -->
<svg version="1.1" id="Слой_3" xmlns="http://www.w3.org/2000/svg" xmlns:xlink="http://www.w3.org/1999/xlink" x="0px" y="0px"
	 viewBox="0 0 48.3 58.7" enable-background="new 0 0 48.3 58.7" xml:space="preserve" width="42" height="51">
<g>
	<path fill="#F63137" d="M47.3,39.3c-3.9,0-7.8,0-11.7,0c1.1-1.6,3.1-5,3.7-9.8c0.5-4.9-0.8-8.7-1.5-10.5c0,0.5-0.2,2-1.3,3.3
		c-1.1,1.3-2.3,1.7-2.8,1.8c0.2-3,0.3-6.7-0.2-10.8C33,8.4,31.9,4.3,30.8,1c-0.3,1.1-0.7,2.8-1.7,4.7c-3.2,6.2-8,7.1-10.3,12.3
		c-0.7,1.6-1.4,4-0.9,7.6c-0.8-0.6-2.2-1.8-3.2-3.8c-0.8-1.7-1-3.3-1-4.2c-0.4,0.4-6.8,6.9-4.8,15c0.9,3.7,3.1,6,4.3,7.2
		c-3.4,0.3-6.8,0.5-10.2,0.8l7.2,4.9l-4.7,6l12.3-1l-4,6l12-3l7.7,4.3V54L46,51.7l-8.3-4L47.3,39.3z M28.5,41.7
		c-0.9,1.6-3,3.7-5,3.3c-2-0.4-2.8-3-3-3.5c-2-5.9,5.1-13,6-13.9c-0.6,1.5-1.3,3.8-1.4,6.6c0,1.6,0.2,3,0.5,4.1
		c0.4-0.2,1-0.6,1.6-1.3c0.7-0.8,1-1.7,1.2-2.1C28.6,35.3,30.2,38.6,28.5,41.7z"/>
</g>
<g>
	<path fill="#252626" d="M33.7,58.7c-0.2,0-0.3,0-0.5-0.1l-7.3-4.1l-11.6,2.9c-0.4,0.1-0.8-0.1-1.1-0.4c-0.2-0.3-0.2-0.8,0-1.1
		l2.9-4.3L5.7,52.3c-0.4,0-0.8-0.2-1-0.5c-0.2-0.3-0.2-0.8,0.1-1.1l4-5.2l-6.3-4.3C2.2,41,2,40.6,2.2,40.2c0.1-0.4,0.5-0.7,0.9-0.7
		l8.1-0.6c-1.2-1.5-2.5-3.5-3.1-6.1c-2.1-8.7,4.8-15.7,5.1-16c0.3-0.3,0.7-0.4,1.1-0.2c0.4,0.1,0.6,0.5,0.6,0.9
		c0,1.3,0.3,2.6,0.9,3.8c0.3,0.7,0.7,1.3,1.1,1.8c0-2,0.4-3.8,1.1-5.5c1.2-2.7,3-4.3,4.9-6c1.9-1.6,3.8-3.3,5.3-6.3
		c0.7-1.4,1.3-2.9,1.6-4.4C30,0.3,30.3,0,30.8,0c0.4,0,0.9,0.3,1,0.7C33.1,4.8,34,9,34.5,13.2c0.3,3.1,0.4,6.2,0.3,9.3
		c0.3-0.2,0.7-0.5,1-0.9c0.9-1,1.1-2.2,1.1-2.8c0-0.5,0.4-0.8,0.8-0.9c0.5-0.1,0.9,0.2,1.1,0.6c1,2.4,2.1,6.3,1.6,11
		c-0.4,3.6-1.6,6.6-2.8,8.7h9.9c0.4,0,0.8,0.3,0.9,0.7c0.1,0.4,0,0.8-0.3,1.1l-8.5,7.3l7,3.3c0.4,0.2,0.6,0.6,0.6,1
		c-0.1,0.4-0.4,0.8-0.8,0.9l-11.5,2.2v2.8c0,0.4-0.2,0.7-0.5,0.9C34,58.6,33.8,58.7,33.7,58.7z M26,52.3c0.2,0,0.3,0,0.5,0.1
		l6.2,3.5v-2c0-0.5,0.3-0.9,0.8-1l9.3-1.8l-5.6-2.7c-0.3-0.1-0.5-0.4-0.6-0.8c0-0.3,0.1-0.7,0.3-0.9l7.6-6.6h-9
		c-0.4,0-0.7-0.2-0.9-0.5s-0.1-0.7,0.1-1c1.3-1.9,3-5.1,3.5-9.4c0.3-2.8,0-5.2-0.5-7.2c-0.2,0.3-0.4,0.5-0.6,0.8
		c-1.2,1.4-2.6,1.9-3.3,2.2c-0.3,0.1-0.7,0-0.9-0.2c-0.3-0.2-0.4-0.5-0.4-0.9c0.3-3.5,0.2-7.1-0.2-10.7c-0.3-3-0.9-6.1-1.7-9
		C30.6,5,30.3,5.6,30,6.1c-1.7,3.3-3.9,5.2-5.8,6.9c-1.8,1.6-3.4,3-4.4,5.3c-0.9,2-1.2,4.4-0.8,7c0.1,0.4-0.1,0.8-0.5,1
		c-0.3,0.2-0.8,0.2-1.1-0.1c-1-0.8-2.5-2.1-3.5-4.2c-0.3-0.7-0.6-1.5-0.8-2.2c-1.8,2.4-4.5,7-3.2,12.4c0.8,3.1,2.6,5.4,4,6.7
		c0.3,0.3,0.4,0.7,0.3,1.1c-0.1,0.4-0.5,0.6-0.9,0.7l-7.4,0.5l4.8,3.3c0.2,0.2,0.4,0.4,0.4,0.7c0,0.3,0,0.6-0.2,0.8l-3.3,4.2
		l10.1-0.8c0.4,0,0.8,0.2,0.9,0.5c0.2,0.3,0.2,0.7,0,1.1l-2.6,3.8l9.5-2.4C25.8,52.3,25.9,52.3,26,52.3z"/>
</g>
<g>
	<path fill="#252626" d="M24.1,46c-0.3,0-0.5,0-0.8-0.1c-1.6-0.4-2.9-1.8-3.7-4.2c-2.1-6.3,4.8-13.5,6.3-14.9
		c0.3-0.3,0.9-0.4,1.3-0.1c0.4,0.3,0.5,0.8,0.4,1.2c-0.8,2-1.3,4.1-1.3,6.2c0,0.8,0,1.6,0.2,2.4c0.1-0.1,0.1-0.1,0.2-0.2
		c0.4-0.5,0.8-1.1,1-1.7c0.1-0.4,0.5-0.7,0.9-0.7c0.4,0,0.8,0.2,1,0.5c0.3,0.7,2,4.3,0.1,7.7C28.4,44,26.3,46,24.1,46z M24.3,31.6
		c-2,2.6-4,6.3-2.9,9.5c0.5,1.6,1.4,2.6,2.3,2.8c1.3,0.3,3.1-1.2,3.9-2.8c0.7-1.3,0.7-2.6,0.5-3.7c-0.1,0.1-0.1,0.2-0.2,0.2
		c-0.5,0.6-1.2,1.1-1.9,1.5c-0.3,0.1-0.6,0.1-0.9,0c-0.3-0.1-0.5-0.4-0.6-0.7c-0.3-1.4-0.5-2.9-0.5-4.4
		C24.1,33.3,24.2,32.4,24.3,31.6z"/>
</g>
<g>
	<path fill="#252626" d="M3.1,33.8c-0.3,0-0.5-0.1-0.7-0.3l-2.1-2.2c-0.4-0.4-0.4-1,0-1.4c0.4-0.4,1-0.4,1.4,0l2.1,2.2
		c0.4,0.4,0.4,1,0,1.4C3.6,33.7,3.4,33.8,3.1,33.8z"/>
</g>
<g>
	<path fill="#252626" d="M44.7,33.8c-0.3,0-0.6-0.1-0.8-0.4c-0.3-0.4-0.3-1.1,0.1-1.4l2.7-2.2c0.4-0.3,1.1-0.3,1.4,0.1
		c0.3,0.4,0.3,1.1-0.1,1.4l-2.7,2.2C45.1,33.8,44.9,33.8,44.7,33.8z"/>
</g>
<g>
	<path fill="#252626" d="M46,19c-0.3,0-0.7-0.2-0.8-0.5c-0.3-0.5-0.2-1.1,0.3-1.4l1.3-0.8c0.5-0.3,1.1-0.2,1.4,0.3s0.2,1.1-0.3,1.4
		l-1.3,0.8C46.4,19,46.2,19,46,19z"/>
</g>
<g>
	<path fill="#252626" d="M17.8,11c-0.4,0-0.8-0.3-1-0.7l-0.5-1.7c-0.2-0.5,0.1-1.1,0.7-1.2c0.5-0.2,1.1,0.1,1.2,0.7l0.5,1.7
		c0.2,0.5-0.1,1.1-0.7,1.2C18,11,17.9,11,17.8,11z"/>
</g>
</svg>
