<?xml version="1.0" encoding="utf-8"?>
<!-- Generator: Adobe Illustrator 18.1.1, SVG Export Plug-In . SVG Version: 6.00 Build 0)  -->
<svg version="1.1" id="Слой_3" xmlns="http://www.w3.org/2000/svg" xmlns:xlink="http://www.w3.org/1999/xlink" x="0px" y="0px"
	 viewBox="0 0 41.5 50.1" enable-background="new 0 0 41.5 50.1" xml:space="preserve" width="36" height="44">
<g>
	<path fill="#F63137" d="M21.1,0.4h-0.7L1,10.1l4.5,27.1l15.1,11.5h0.2L36,37.3l4.5-27.2L21.1,0.4z M23.8,10.3l-0.8,17.2h-4.3
		l-0.9-17.2H23.8z M20.8,36.4c-2.1,0-3.4-1.5-3.4-3.5c0-2,1.4-3.5,3.4-3.5c2,0,3.3,1.4,3.4,3.5C24.2,34.9,22.8,36.4,20.8,36.4z"/>
</g>
<g>
	<path fill="#252626" d="M20.9,50.1c-0.2,0-0.4,0-0.5-0.1l-0.2-0.1c0,0-0.1,0-0.1-0.1L4.9,38.1c-0.2-0.2-0.3-0.4-0.4-0.6L0,10.6
		c-0.1-0.4,0.2-0.9,0.5-1.1L20,0.1C20.1,0,20.3,0,20.4,0h0.7c0.2,0,0.3,0,0.4,0.1l19.4,9.4c0.4,0.2,0.6,0.6,0.5,1.1L37,37.7
		c0,0.3-0.2,0.5-0.4,0.6L21.5,49.9C21.3,50,21.1,50.1,20.9,50.1z M6.4,36.8l14.4,11.1L35.1,37l4.3-26L20.9,2h-0.2L2.1,11L6.4,36.8z"
		/>
</g>
<g>
	<g>
		<path fill="#252626" d="M20.8,37.4c-2.6,0-4.4-1.9-4.4-4.5c0-2.2,1.4-3.9,3.4-4.4h-1.2c-0.5,0-1-0.4-1-0.9l-0.9-17.2
			c0-0.3,0.1-0.5,0.3-0.7c0.2-0.2,0.5-0.3,0.7-0.3h6c0.3,0,0.5,0.1,0.7,0.3c0.2,0.2,0.3,0.5,0.3,0.7l-0.8,17.2c0,0.5-0.5,1-1,1h-1.2
			c2,0.4,3.4,2.1,3.4,4.3C25.2,35.5,23.3,37.4,20.8,37.4z M20.8,30.4c-1.4,0-2.4,1-2.4,2.5c0,1.5,1,2.5,2.4,2.5s2.4-1,2.4-2.5
			C23.1,31.4,22.2,30.4,20.8,30.4z M19.6,26.5H22l0.7-15.2h-3.9L19.6,26.5z"/>
	</g>
</g>
</svg>
