<?xml version="1.0" encoding="utf-8"?>
<!-- Generator: Adobe Illustrator 18.1.1, SVG Export Plug-In . SVG Version: 6.00 Build 0)  -->
<svg version="1.1" id="Слой_3" xmlns="http://www.w3.org/2000/svg" xmlns:xlink="http://www.w3.org/1999/xlink" x="0px" y="0px"
	 viewBox="0 0 47.6 62.6" enable-background="new 0 0 47.6 62.6" xml:space="preserve" widht="42" height="55">
<g>
	<path fill="#F63137" d="M44.2,61.6c-7.5,0.2-14.8-0.2-22.3,0c1.1-0.8,1.8-1.4,2.8-2.2c-6.3-6.8-8.2-14.9-5.1-20.1
		c0.7-1.1,1.9-2.7,4.5-4.1c-0.5-2-2-7.6-1.5-11.9c0.2-1.6,0.5-2.6,1.4-3.3c0.9-0.7,2.1-0.7,2.7-0.6c0.2-0.9,0.3-1.7,0.5-2.6
		c-1.4-1-2.7-2-4.1-2.9c0.8-1.7,1.5-3.3,2.3-5c-0.5-2.3-1.1-4.7-1.6-7c1.7,1.2,3.5,2.4,5.2,3.6c0.8-0.4,2.1-0.8,3.8-0.9
		c1.4-0.1,2.6,0.2,3.4,0.5c1.4-1.4,2.9-2.7,4.3-4.1c-0.2,2.1-0.3,4.2-0.5,6.3c0.9,2.2,1.7,4.3,2.6,6.5c-1.6,0.8-3.2,1.7-4.8,2.5
		c0.4,0.9,0.8,1.8,1.1,2.7c0.6,0.1,1.4,0.4,2.1,1.1c2,1.9,1.7,5.2,1.3,9.4c-0.2,1.5-0.5,3.5-1.1,6c1.8,1,2.9,2.2,3.6,3.2
		c3.3,4.8,2,12.7-3.2,19.8C42.5,59.4,43.4,60.7,44.2,61.6z"/>
</g>
<g>
	<path fill="#252626" d="M39.6,62.6c-2.2,0-4.4,0-6.6-0.1c-2.2,0-4.4-0.1-6.6-0.1c-1.6,0-3.1,0-4.5,0.1c0,0,0,0,0,0
		c-0.4,0-0.8-0.3-0.9-0.7c-0.1-0.4,0-0.9,0.3-1.1l2-1.6c-6-6.9-7.8-15-4.5-20.5c1-1.6,2.4-3,4.2-4c-0.8-2.9-1.8-7.7-1.3-11.5
		c0.1-1.3,0.5-3,1.8-4c0.7-0.5,1.5-0.8,2.5-0.8l0.2-1.1l-3.5-2.6c-0.4-0.3-0.5-0.8-0.3-1.2l2.1-4.7l-1.5-6.7c-0.1-0.4,0.1-0.8,0.4-1
		c0.3-0.2,0.8-0.2,1.1,0l4.7,3.3c1.2-0.5,2.4-0.7,3.7-0.8c1.1,0,2.1,0.1,3.1,0.3l3.9-3.7c0.3-0.3,0.7-0.4,1.1-0.2s0.6,0.6,0.6,1
		l-0.4,6.1l2.5,6.3c0.2,0.5,0,1-0.5,1.3l-4,2.1l0.6,1.4c0.8,0.3,1.5,0.7,2,1.2c2.4,2.2,2,6.1,1.6,10.2c-0.2,1.8-0.5,3.6-0.9,5.4
		c1.3,0.8,2.4,1.9,3.3,3.1c3.5,5,2.4,12.9-2.7,20.3c0.3,0.3,0.5,0.7,0.8,1c0.4,0.5,0.8,1.1,1.2,1.5c0.3,0.3,0.3,0.7,0.2,1.1
		c-0.2,0.4-0.5,0.6-0.9,0.6C42.8,62.6,41.3,62.6,39.6,62.6z M26.5,60.5c2.2,0,4.4,0,6.6,0.1c2.2,0,4.4,0.1,6.6,0.1
		c0.9,0,1.7,0,2.5,0c-0.4-0.5-0.8-1.1-1.2-1.5c-0.3-0.4-0.4-0.9-0.1-1.3c4.9-6.8,6.2-14.3,3.1-18.7c-0.8-1.1-1.9-2.1-3.3-2.8
		c-0.4-0.2-0.6-0.7-0.5-1.1c0.5-1.9,0.9-3.9,1.1-5.8c0.5-4.3,0.6-7.1-1-8.5c-0.4-0.4-1-0.7-1.7-0.9c-0.3-0.1-0.6-0.3-0.7-0.6
		l-1.1-2.7c-0.2-0.5,0-1,0.5-1.3l4-2.1l-2.2-5.6c-0.1-0.1-0.1-0.3-0.1-0.4l0.3-3.7l-2.4,2.3c-0.3,0.2-0.6,0.3-1,0.2
		c-1-0.3-2-0.4-3-0.4c-1.2,0-2.4,0.3-3.5,0.8c-0.3,0.1-0.7,0.1-1-0.1l-3.1-2.1l1,4.5c0,0.2,0,0.4-0.1,0.6l-1.9,4.2l3.4,2.4
		c0.3,0.2,0.5,0.6,0.4,1l-0.5,2.6c-0.1,0.5-0.6,0.9-1.1,0.8c-0.1,0-0.3,0-0.5,0c-0.6,0-1.1,0.1-1.5,0.4c-0.6,0.4-0.9,1.2-1,2.6
		c-0.4,3.8,0.8,8.9,1.5,11.5c0.1,0.5-0.1,0.9-0.5,1.2c-1.8,0.9-3.2,2.2-4.1,3.7c-2.9,4.9-0.9,12.7,5,18.9c0.2,0.2,0.3,0.5,0.3,0.8
		c0,0.3-0.2,0.5-0.4,0.7l-0.5,0.4C25.4,60.5,25.9,60.5,26.5,60.5z"/>
</g>
<g>
	<path fill="#252626" d="M17.4,59.6c-1.5,0-3-0.2-4.5-0.6c-0.9-0.3-9.3-2.7-12.1-11.2c-2.4-7.3,0.9-14,4.4-17.6
		c2-2.1,5.3-4.1,8.1-4.1c0.5,0,0.9,0.1,1.3,0.2c0.6,0.2,2.1,0.6,2.7,2c0.1,0.2,0.5,1.4,0,2.4c-0.7,1.3-2.4,1.5-3.3,1.6l-0.2,0
		c-2.8,0.4-5.3,3.6-6.2,5.3c-2,3.6-1.1,9.1,2.1,12.6c2.9,3.2,6.7,3.9,9.4,3.9c0,0,0,0,0,0c1.2,0,2-0.1,2-0.2c0.4-0.1,0.7,0.1,1,0.4
		l2,2.6c0.2,0.3,0.3,0.6,0.2,0.9c-0.1,0.3-0.3,0.6-0.6,0.7C21.5,59.2,19.4,59.6,17.4,59.6z M13.3,28.1c-1.8,0-4.6,1.5-6.6,3.6
		c-3.1,3.2-6,9.1-3.9,15.5c2.4,7.5,9.9,9.7,10.7,9.9c2.6,0.7,5.4,0.7,8.1,0l-0.8-1c-0.4,0-1,0.1-1.8,0.1c0,0,0,0,0,0
		c-2.5,0-7.3-0.6-10.9-4.6c-3.8-4.2-4.8-10.5-2.4-14.9c1.2-2.2,4.1-5.9,7.7-6.4l0.3,0c0.5,0,1.6-0.2,1.8-0.6c0.1-0.2,0-0.6,0-0.7
		c-0.2-0.6-1-0.8-1.4-0.9C13.8,28.1,13.5,28.1,13.3,28.1z"/>
</g>
<g>
	<path fill="#252626" d="M29,61.9c-0.5,0-0.9-0.3-1-0.8l-4.9-25.8c-0.1-0.5,0.3-1.1,0.8-1.2c0.5-0.1,1.1,0.3,1.2,0.8L30,60.7
		c0.1,0.5-0.3,1.1-0.8,1.2C29.2,61.9,29.1,61.9,29,61.9z"/>
</g>
<g>
	<path fill="#252626" d="M37.4,61.9c0,0-0.1,0-0.1,0c-0.5-0.1-0.9-0.6-0.8-1.1l3.8-25.5c0.1-0.5,0.6-0.9,1.1-0.8
		c0.5,0.1,0.9,0.6,0.8,1.1l-3.8,25.5C38.3,61.6,37.9,61.9,37.4,61.9z"/>
</g>
<g>
	<path fill="#252626" d="M33.7,61.9c-0.5,0-1-0.4-1-1l-0.4-27l-2.7-2.7c-0.4-0.4-0.4-1,0-1.4c0.4-0.4,1-0.4,1.4,0l3,3
		c0.2,0.2,0.3,0.4,0.3,0.7l0.4,27.4C34.7,61.5,34.2,61.9,33.7,61.9C33.7,61.9,33.7,61.9,33.7,61.9z"/>
</g>
<g>
	<path fill="#252626" d="M33.7,34.1c-0.3,0-0.5-0.1-0.7-0.3c-0.4-0.4-0.4-1,0-1.4l2.5-2.5c0.4-0.4,1-0.4,1.4,0c0.4,0.4,0.4,1,0,1.4
		l-2.5,2.5C34.2,34,33.9,34.1,33.7,34.1z"/>
</g>
</svg>
