<?xml version="1.0" encoding="UTF-8" standalone="no"?>
<svg width="76px" height="93px" viewBox="0 0 76 93" version="1.1" xmlns="http://www.w3.org/2000/svg" xmlns:xlink="http://www.w3.org/1999/xlink">
    <!-- Generator: Sketch 3.8.1 (29687) - http://www.bohemiancoding.com/sketch -->
    <title>tara</title>
    <desc>Created with Sketch.</desc>
    <defs></defs>
    <g id="Page-1" stroke="none" stroke-width="1" fill="none" fill-rule="evenodd">
        <g id="tara" transform="translate(-73.000000, -42.000000)" fill="#252626">
            <path d="M78,135 C77.5880968,135 76.8911957,134.302998 77,134 L77,58 C76.8911957,53.7494647 76.1942946,49.866167 75,46 L74,44 C73.9044766,43.493576 74.0040339,42.9957173 74,43 C74.6013777,42.1991435 74.9996069,42 75,42 L146,42 C146.979538,42 147.477324,42.2987152 148,43 C148.074668,43.2944325 148.074668,43.7922912 148,44 L139,58 C138.218495,59.3211991 137.720708,62.3126338 138,65 L138,134 C137.820266,134.302998 137.222922,135 136,135 L78,135 Z M135,132 L135,64 C134.981982,61.7231121 135.884065,56.6218476 137.208389,54.3872938 L144,45 L78,45 C79.4864865,49.180778 80.2792793,53.3615561 80,58 L80,132 L135,132 Z"></path>
        </g>
    </g>
</svg>