<?xml version="1.0" encoding="UTF-8" standalone="no"?>
<svg width="46px" height="63px" viewBox="0 0 46 63" version="1.1" xmlns="http://www.w3.org/2000/svg" xmlns:xlink="http://www.w3.org/1999/xlink">
    <!-- Generator: Sketch 3.8.1 (29687) - http://www.bohemiancoding.com/sketch -->
    <title>list 2</title>
    <desc>Created with Sketch.</desc>
    <defs></defs>
    <g id="Page-1" stroke="none" stroke-width="1" fill="none" fill-rule="evenodd" stroke-linecap="round">
        <g id="list-2" transform="translate(2.000000, 2.000000)" stroke="#252626">
            <path d="M0.3,59 C1.1,57.7 2.4,55.9 4.4,54.3 C7.4,52 10.3,51.3 12.5,50.8 C19.7,49 25.2,46.4 26.2,45.9 C36.1,41.1 39.5,28.2 40.9,22.4 C43.2,13.4 42.4,5.4 41.3,0.1 C39.1,0.9 32.8,3 30.5,3.8 C14.6,9.2 13.4,9.7 11.9,10.6 C8,13 1.3,19.9449154 0.699996948,36.6100006" id="Shape" stroke-width="3"></path>
            <path d="M37,7.6 C38.8,4.7 40.1,2.1 40.9,0.1" id="Shape" stroke-width="2"></path>
            <path d="M27.8,17.8 C28.8,17 29.6,16.3 30.4,15.6" id="Shape" stroke-width="2"></path>
            <path d="M21,23.6 C22.6,22.1 24,20.9 25.2,19.9" id="Shape" stroke-width="2"></path>
            <path id="Shape" stroke-width="2"></path>
            <path d="M15.1,29.1 C15.8,28.4 16.6,27.7 17.4,26.9" id="Shape" stroke-width="2"></path>
            <path d="M9.9,34.6 C11.5,32.6 13.2,30.9 15.1,29.1" id="Shape" stroke-width="2"></path>
            <path d="M1,48.5 C2.1,46.1 3.8,42.8 6.4,39.1" id="Shape" stroke-width="2"></path>
        </g>
    </g>
</svg>