<?xml version="1.0" encoding="utf-8"?>
<!-- Generator: Adobe Illustrator 18.1.0, SVG Export Plug-In . SVG Version: 6.00 Build 0)  -->
<svg version="1.0" id="Слой_1"
	 xmlns="http://www.w3.org/2000/svg" xmlns:xlink="http://www.w3.org/1999/xlink" x="0px" y="0px" viewBox="0 0 35.8 31.8"
	 enable-background="new 0 0 35.8 31.8" xml:space="preserve">
<switch>
	<g>
		
			<path fill="none" stroke="#ffffff" stroke-width="1.8" stroke-linecap="round" stroke-linejoin="round" stroke-miterlimit="10" d="
			M27.8,25.1c-2.7,3.5-7,5.8-11.8,5.8c-8.3,0-15-6.7-15-15s6.7-15,15-15s15,6.7,15,15c0,0.4,0,0.8,0,1.1"/>
		<g>
			<path fill="#ffffff" d="M12.6,21.6c-0.9,0-1.6,0.7-1.6,1.6c0,0.9,0.7,1.6,1.6,1.6s1.6-0.7,1.6-1.6C14.2,22.3,13.5,21.6,12.6,21.6L12.6,21.6z
				 M7.8,8.8v1.6h1.6l2.9,6.1l-1.1,1.9c-0.1,0.2-0.2,0.6-0.2,0.8c0,0.9,0.7,1.6,1.6,1.6h9.6v-1.6h-9.3c-0.1,0-0.2-0.1-0.2-0.2v-0.1
				l0.7-1.4h5.9c0.6,0,1.1-0.3,1.4-0.8l2.9-5.2c0.2-0.2,0.2-0.2,0.2-0.4c0-0.5-0.3-0.8-0.8-0.8H11.2l-0.7-1.6H7.8z M20.6,21.6
				c-0.9,0-1.6,0.7-1.6,1.6c0,0.9,0.7,1.6,1.6,1.6s1.6-0.7,1.6-1.6C22.2,22.3,21.5,21.6,20.6,21.6L20.6,21.6z"/>
		</g>
		<path stroke="#FFFFFF" stroke-miterlimit="10" d="M20.6,21.6"/>
		
			<polyline fill="none" stroke="#ffffff" stroke-width="1.8" stroke-linecap="round" stroke-linejoin="round" stroke-miterlimit="10" points="
			34.8,12.5 31.4,17.9 26.4,13.9 		"/>
	</g>
</switch>
</svg>
