<?xml version="1.0" encoding="UTF-8" standalone="no"?>
<svg width="16px" height="15px" viewBox="0 0 16 15" version="1.1" xmlns="http://www.w3.org/2000/svg" xmlns:xlink="http://www.w3.org/1999/xlink">
    <!-- Generator: Sketch 3.8.1 (29687) - http://www.bohemiancoding.com/sketch -->
    <title>c1</title>
    <desc>Created with Sketch.</desc>
    <defs></defs>
    <g id="Page-1" stroke="none" stroke-width="1" fill="none" fill-rule="evenodd">
        <g id="c1">
            <circle id="Oval" fill="#F63137" cx="8.1" cy="7.4" r="6.4"></circle>
            <path d="M8.1,14.8 C7.3,14.8 6.6,14.7 5.9,14.4 C5.4,14.2 5.1,13.7 5.3,13.1 C5.5,12.6 6,12.3 6.6,12.5 C7.7,12.8 8.8,12.8 9.9,12.5 C10.4,12.3 11,12.6 11.2,13.1 C11.4,13.6 11.1,14.2 10.6,14.4 C9.7,14.6 8.9,14.8 8.1,14.8 L8.1,14.8 Z M3,12.2 C2.7,12.2 2.4,12.1 2.2,11.8 C1.3,10.5 0.8,9.1 0.8,7.5 C0.8,6.9 1.2,6.5 1.8,6.5 L1.8,6.5 C2.3,6.5 2.8,6.9 2.8,7.5 C2.8,8.6 3.2,9.7 3.8,10.6 C4.1,11 4,11.7 3.6,12 C3.4,12.1 3.2,12.2 3,12.2 L3,12.2 Z M13.3,12.1 C13.1,12.1 12.9,12 12.7,11.9 C12.3,11.6 12.2,11 12.5,10.5 C13.2,9.6 13.5,8.5 13.5,7.4 C13.5,6.8 13.9,6.4 14.5,6.4 C15.1,6.4 15.5,6.8 15.5,7.4 L15.5,7.5 C15.5,9.1 15,10.6 14.1,11.8 C13.9,12 13.6,12.1 13.3,12.1 L13.3,12.1 Z M2.9,4.7 C2.7,4.7 2.5,4.6 2.3,4.5 C1.9,4.2 1.7,3.6 2.1,3.1 C3,1.8 4.3,0.9 5.8,0.4 C6.3,0.2 6.9,0.5 7.1,1 C7.3,1.5 7,2.1 6.5,2.3 C5.4,2.7 4.5,3.4 3.8,4.3 C3.6,4.6 3.3,4.7 2.9,4.7 L2.9,4.7 Z M13.2,4.6 C12.9,4.6 12.6,4.5 12.4,4.2 C11.7,3.3 10.8,2.6 9.7,2.3 C9.2,2.1 8.9,1.6 9,1 C9.2,0.5 9.7,0.2 10.3,0.3 C11.8,0.8 13.1,1.7 14,2.9 C14.3,3.3 14.2,4 13.8,4.3 C13.6,4.6 13.4,4.6 13.2,4.6 L13.2,4.6 Z" id="Shape" fill="#252626"></path>
        </g>
    </g>
</svg>