<?xml version="1.0" encoding="UTF-8" standalone="no"?>
<svg width="16px" height="15px" viewBox="0 0 16 15" version="1.1" xmlns="http://www.w3.org/2000/svg" xmlns:xlink="http://www.w3.org/1999/xlink">
    <!-- Generator: Sketch 3.8.1 (29687) - http://www.bohemiancoding.com/sketch -->
    <title>c2</title>
    <desc>Created with Sketch.</desc>
    <defs></defs>
    <g id="Page-1" stroke="none" stroke-width="1" fill="none" fill-rule="evenodd">
        <g id="c2" fill="#252626">
            <path d="M8.2,14.7 L8.2,14.7 C7.4,14.7 6.7,14.6 5.9,14.3 C5.4,14.1 5.1,13.6 5.3,13 C5.5,12.5 6,12.2 6.6,12.4 C7.1,12.6 7.7,12.7 8.2,12.7 L8.2,12.7 C8.8,12.7 9.3,12.6 9.9,12.4 C10.4,12.2 11,12.5 11.2,13 C11.4,13.5 11.1,14.1 10.6,14.3 C9.7,14.5 9,14.7 8.2,14.7 L8.2,14.7 Z M3.1,12.1 C2.8,12.1 2.5,12 2.3,11.7 C1.4,10.4 0.9,9 0.9,7.4 C0.9,6.8 1.3,6.4 1.9,6.4 L1.9,6.4 C2.4,6.4 2.9,6.8 2.9,7.4 C2.9,8.5 3.3,9.6 3.9,10.5 C4.2,10.9 4.1,11.6 3.7,11.9 C3.5,12 3.3,12.1 3.1,12.1 L3.1,12.1 Z M13.3,12 C13.1,12 12.9,11.9 12.7,11.8 C12.3,11.5 12.2,10.9 12.5,10.4 C13.2,9.5 13.5,8.4 13.5,7.3 C13.5,6.7 13.9,6.3 14.5,6.3 C15.1,6.3 15.5,6.7 15.5,7.3 L15.5,7.4 C15.5,9 15,10.5 14.1,11.7 C13.9,11.9 13.6,12 13.3,12 L13.3,12 Z M3,4.6 C2.8,4.6 2.6,4.5 2.4,4.4 C2,4.1 1.8,3.5 2.2,3 C3.1,1.7 4.4,0.8 5.9,0.3 C6.4,0.1 7,0.4 7.2,0.9 C7.4,1.4 7.1,2 6.6,2.2 C5.5,2.6 4.6,3.3 3.9,4.2 C3.6,4.5 3.3,4.6 3,4.6 L3,4.6 Z M13.3,4.5 C13,4.5 12.7,4.4 12.5,4.1 C11.8,3.2 10.9,2.5 9.8,2.2 C9.3,2 9,1.5 9.1,0.9 C9.3,0.4 9.8,0.1 10.4,0.2 C11.9,0.7 13.2,1.6 14.1,2.8 C14.4,3.2 14.3,3.9 13.9,4.2 C13.7,4.5 13.5,4.5 13.3,4.5 L13.3,4.5 Z" id="Shape"></path>
        </g>
    </g>
</svg>