<?xml version="1.0" encoding="UTF-8" standalone="no"?>
<svg width="18px" height="25px" viewBox="0 0 18 25" version="1.1" xmlns="http://www.w3.org/2000/svg" xmlns:xlink="http://www.w3.org/1999/xlink">
    <!-- Generator: Sketch 3.8.1 (29687) - http://www.bohemiancoding.com/sketch -->
    <title>g2</title>
    <desc>Created with Sketch.</desc>
    <defs></defs>
    <g id="Page-1" stroke="none" stroke-width="1" fill="none" fill-rule="evenodd">
        <path d="M11.8,24.1 C9.4,24.1 7.3,22.7 6.3,20.5 L1.2,9.1 C-0.1,6.1 1.2,2.5 4.2,1.2 C5,0.9 5.8,0.7 6.6,0.7 C9,0.7 11.1,2.1 12.1,4.3 L17.2,15.7 C18.6,18.7 17.2,22.3 14.2,23.6 C13.5,23.9 12.7,24.1 11.8,24.1 L11.8,24.1 Z M6.7,2.6 C6.1,2.6 5.6,2.7 5.1,2.9 C3.1,3.8 2.2,6.2 3.1,8.2 L8.2,19.6 C8.8,21 10.3,22 11.9,22 C12.5,22 13,21.9 13.5,21.7 C15.5,20.8 16.4,18.4 15.5,16.4 L10.4,5 C9.8,3.6 8.3,2.6 6.7,2.6 L6.7,2.6 Z" id="g2" fill="#252626"></path>
    </g>
</svg>