<?xml version="1.0" encoding="UTF-8" standalone="no"?>
<svg width="67px" height="66px" viewBox="0 0 67 66" version="1.1" xmlns="http://www.w3.org/2000/svg" xmlns:xlink="http://www.w3.org/1999/xlink">
    <!-- Generator: Sketch 3.8.1 (29687) - http://www.bohemiancoding.com/sketch -->
    <title>m1</title>
    <desc>Created with Sketch.</desc>
    <defs></defs>
    <g id="Page-1" stroke="none" stroke-width="1" fill="none" fill-rule="evenodd">
        <g id="m1">
            <path d="M33.4,1.5 C16.1,1.5 2,15.6 2,32.9 C2,50.2 16.1,64.3 33.4,64.3 C50.7,64.3 64.8,50.2 64.8,32.9 C64.8,15.6 50.8,1.5 33.4,1.5 L33.4,1.5 Z M19.3,55.2 C15.8,55.2 12.9,52.4 12.9,48.8 C12.9,45.3 15.7,42.4 19.3,42.4 C22.9,42.4 25.7,45.2 25.7,48.8 C25.6,52.4 22.8,55.2 19.3,55.2 L19.3,55.2 Z M21.3,26 C17.8,26 14.9,23.2 14.9,19.6 C14.9,16 17.7,13.2 21.3,13.2 C24.8,13.2 27.7,16 27.7,19.6 C27.7,23.2 24.8,26 21.3,26 L21.3,26 Z M50.4,37 C46.9,37 44,34.2 44,30.6 C44,27 46.8,24.2 50.4,24.2 C53.9,24.2 56.8,27 56.8,30.6 C56.8,34.2 53.9,37 50.4,37 L50.4,37 Z" id="Shape" fill="#F63137"></path>
            <path d="M33.4,65.8 C15.3,65.8 0.5,51 0.5,32.9 C0.5,14.8 15.3,0 33.4,0 C51.5,0 66.3,14.8 66.3,32.9 C66.3,51 51.6,65.8 33.4,65.8 L33.4,65.8 Z M33.4,3 C16.9,3 3.5,16.4 3.5,32.9 C3.5,49.4 16.9,62.8 33.4,62.8 C49.9,62.8 63.3,49.4 63.3,32.9 C63.3,16.4 49.9,3 33.4,3 L33.4,3 Z" id="Shape" fill="#252626"></path>
            <path d="M56,52.5 C53.2,52.5 50.9,50.2 50.9,47.4 C50.9,44.6 53.2,42.3 56,42.3 C58.8,42.3 61.1,44.6 61.1,47.4 C61.1,50.2 58.8,52.5 56,52.5 L56,52.5 Z M56,44.3 C54.3,44.3 52.9,45.7 52.9,47.4 C52.9,49.1 54.3,50.5 56,50.5 C57.7,50.5 59.1,49.1 59.1,47.4 C59.1,45.7 57.7,44.3 56,44.3 L56,44.3 Z" id="Shape" fill="#252626"></path>
            <path d="M9.6,29.4 C6.8,29.4 4.5,27.1 4.5,24.3 C4.5,21.5 6.8,19.2 9.6,19.2 C12.4,19.2 14.7,21.5 14.7,24.3 C14.7,27.1 12.4,29.4 9.6,29.4 L9.6,29.4 Z M9.6,21.2 C7.9,21.2 6.5,22.6 6.5,24.3 C6.5,26 7.9,27.4 9.6,27.4 C11.3,27.4 12.7,26 12.7,24.3 C12.7,22.6 11.3,21.2 9.6,21.2 L9.6,21.2 Z" id="Shape" fill="#252626"></path>
            <path d="M41.1,16.5 C38.3,16.5 36,14.2 36,11.4 C36,8.6 38.3,6.3 41.1,6.3 C43.9,6.3 46.2,8.6 46.2,11.4 C46.2,14.2 43.9,16.5 41.1,16.5 L41.1,16.5 Z M41.1,8.4 C39.4,8.4 38,9.8 38,11.5 C38,13.2 39.4,14.6 41.1,14.6 C42.8,14.6 44.2,13.2 44.2,11.5 C44.2,9.7 42.8,8.4 41.1,8.4 L41.1,8.4 Z" id="Shape" fill="#252626"></path>
            <path d="M41.6,43.5 C39.5,43.5 37.8,41.8 37.8,39.7 C37.8,37.6 39.5,35.9 41.6,35.9 C43.7,35.9 45.4,37.6 45.4,39.7 C45.4,41.8 43.7,43.5 41.6,43.5 L41.6,43.5 Z M41.6,38 C40.6,38 39.8,38.8 39.8,39.8 C39.8,40.8 40.6,41.6 41.6,41.6 C42.6,41.6 43.4,40.8 43.4,39.8 C43.4,38.8 42.6,38 41.6,38 L41.6,38 Z" id="Shape" fill="#252626"></path>
            <path d="M24,34.4 C21.9,34.4 20.2,32.7 20.2,30.6 C20.2,28.5 21.9,26.8 24,26.8 C26.1,26.8 27.8,28.5 27.8,30.6 C27.8,32.7 26.1,34.4 24,34.4 L24,34.4 Z M24,28.9 C23,28.9 22.2,29.7 22.2,30.7 C22.2,31.7 23,32.5 24,32.5 C25,32.5 25.8,31.7 25.8,30.7 C25.8,29.7 25,28.9 24,28.9 L24,28.9 Z" id="Shape" fill="#252626"></path>
            <path d="M25.8,61.1 C23.7,61.1 22,59.4 22,57.3 C22,55.2 23.7,53.5 25.8,53.5 C27.9,53.5 29.6,55.2 29.6,57.3 C29.6,59.4 27.8,61.1 25.8,61.1 L25.8,61.1 Z M25.8,55.6 C24.8,55.6 24,56.4 24,57.4 C24,58.4 24.8,59.2 25.8,59.2 C26.8,59.2 27.6,58.4 27.6,57.4 C27.6,56.4 26.7,55.6 25.8,55.6 L25.8,55.6 Z" id="Shape" fill="#252626"></path>
            <path d="M50.4,38 C46.3,38 43,34.7 43,30.6 C43,26.5 46.3,23.2 50.4,23.2 C54.5,23.2 57.8,26.5 57.8,30.6 C57.8,34.7 54.5,38 50.4,38 L50.4,38 Z M50.4,25.3 C47.4,25.3 45,27.7 45,30.7 C45,33.7 47.4,36.1 50.4,36.1 C53.4,36.1 55.8,33.7 55.8,30.7 C55.8,27.7 53.4,25.3 50.4,25.3 L50.4,25.3 Z" id="Shape" fill="#252626"></path>
            <path d="M50.4,33.3 C48.9,33.3 47.7,32.1 47.7,30.6 C47.7,29.1 48.9,27.9 50.4,27.9 C51.9,27.9 53.1,29.1 53.1,30.6 C53.1,32.1 51.9,33.3 50.4,33.3 L50.4,33.3 Z M50.4,29.9 C50,29.9 49.7,30.2 49.7,30.6 C49.7,31 50,31.3 50.4,31.3 C50.8,31.3 51.1,31 51.1,30.6 C51.1,30.2 50.8,29.9 50.4,29.9 L50.4,29.9 Z" id="Shape" fill="#252626"></path>
            <path d="M19.3,56.2 C15.2,56.2 11.9,52.9 11.9,48.8 C11.9,44.7 15.2,41.4 19.3,41.4 C23.4,41.4 26.7,44.7 26.7,48.8 C26.7,52.9 23.3,56.2 19.3,56.2 L19.3,56.2 Z M19.3,43.5 C16.3,43.5 13.9,45.9 13.9,48.9 C13.9,51.9 16.3,54.3 19.3,54.3 C22.3,54.3 24.7,51.9 24.7,48.9 C24.7,45.9 22.2,43.5 19.3,43.5 L19.3,43.5 Z" id="Shape" fill="#252626"></path>
            <path d="M19.3,51.6 C17.8,51.6 16.6,50.4 16.6,48.9 C16.6,47.4 17.8,46.2 19.3,46.2 C20.8,46.2 22,47.4 22,48.9 C22,50.4 20.7,51.6 19.3,51.6 L19.3,51.6 Z M19.3,48.2 C18.9,48.2 18.6,48.5 18.6,48.9 C18.6,49.3 18.9,49.6 19.3,49.6 C19.7,49.6 20,49.3 20,48.9 C20,48.5 19.6,48.2 19.3,48.2 L19.3,48.2 Z" id="Shape" fill="#252626"></path>
            <path d="M21.3,27 C17.2,27 13.9,23.7 13.9,19.6 C13.9,15.5 17.2,12.2 21.3,12.2 C25.4,12.2 28.7,15.5 28.7,19.6 C28.7,23.7 25.3,27 21.3,27 L21.3,27 Z M21.3,14.3 C18.3,14.3 15.9,16.7 15.9,19.7 C15.9,22.7 18.3,25.1 21.3,25.1 C24.3,25.1 26.7,22.7 26.7,19.7 C26.6,16.7 24.2,14.3 21.3,14.3 L21.3,14.3 Z" id="Shape" fill="#252626"></path>
            <path d="M21.3,22.4 C19.8,22.4 18.6,21.2 18.6,19.7 C18.6,18.2 19.8,17 21.3,17 C22.8,17 24,18.2 24,19.7 C24,21.2 22.8,22.4 21.3,22.4 L21.3,22.4 Z M21.3,18.9 C20.9,18.9 20.6,19.2 20.6,19.6 C20.6,20 20.9,20.3 21.3,20.3 C21.7,20.3 22,20 22,19.6 C22,19.2 21.7,18.9 21.3,18.9 L21.3,18.9 Z" id="Shape" fill="#252626"></path>
        </g>
    </g>
</svg>