<?xml version="1.0" encoding="UTF-8" standalone="no"?>
<svg width="19px" height="15px" viewBox="0 0 19 15" version="1.1" xmlns="http://www.w3.org/2000/svg" xmlns:xlink="http://www.w3.org/1999/xlink">
    <!-- Generator: Sketch 3.8.1 (29687) - http://www.bohemiancoding.com/sketch -->
    <title>s1</title>
    <desc>Created with Sketch.</desc>
    <defs></defs>
    <g id="Page-1" stroke="none" stroke-width="1" fill="none" fill-rule="evenodd">
        <path d="M17.1,14.6 C16.9,14.6 16.7,14.5 16.5,14.4 L13.3,12 C12.9,11.7 12.8,11 13.1,10.6 C13.4,10.2 14.1,10.1 14.5,10.4 L17.7,12.8 C18.1,13.1 18.2,13.8 17.9,14.2 C17.8,14.4 17.5,14.6 17.1,14.6 L17.1,14.6 Z M10.7,9.8 C10.5,9.8 10.3,9.7 10.1,9.6 L6.9,7.2 C6.5,6.9 6.4,6.2 6.7,5.8 C7,5.4 7.7,5.3 8.1,5.6 L11.3,8 C11.7,8.3 11.8,9 11.5,9.4 C11.3,9.7 11,9.8 10.7,9.8 L10.7,9.8 Z M4.2,5.1 C4,5.1 3.8,5 3.6,4.9 L0.4,2.5 C-2.22044605e-16,2.2 -0.1,1.5 0.2,1.1 C0.5,0.7 1.2,0.6 1.6,0.9 L4.8,3.3 C5.2,3.6 5.3,4.3 5,4.7 C4.8,5 4.5,5.1 4.2,5.1 L4.2,5.1 Z" id="s1" fill="#252626"></path>
    </g>
</svg>