<?xml version="1.0" encoding="UTF-8" standalone="no"?>
<svg width="18px" height="25px" viewBox="0 0 18 25" version="1.1" xmlns="http://www.w3.org/2000/svg" xmlns:xlink="http://www.w3.org/1999/xlink">
    <!-- Generator: Sketch 3.8.1 (29687) - http://www.bohemiancoding.com/sketch -->
    <title>g1</title>
    <desc>Created with Sketch.</desc>
    <defs></defs>
    <g id="Page-1" stroke="none" stroke-width="1" fill="none" fill-rule="evenodd">
        <g id="g1">
            <path d="M13,1.9 L13,1.9 C15.6,2.9 16.8,5.9 15.8,8.4 L11.1,20 C10.1,22.6 7.1,23.8 4.6,22.8 L4.6,22.8 C2,21.8 0.8,18.8 1.8,16.3 L6.5,4.7 C7.5,2.1 10.5,0.9 13,1.9 L13,1.9 Z" id="Shape" fill="#F63137"></path>
            <path d="M6.4,24.1 C5.6,24.1 4.9,24 4.2,23.7 C1.1,22.5 -0.4,18.9 0.9,15.9 L5.6,4.3 C6.5,2 8.7,0.5 11.2,0.5 C12,0.5 12.7,0.6 13.4,0.9 C16.5,2.1 18,5.7 16.7,8.7 L12,20.4 C11.1,22.7 8.9,24.1 6.4,24.1 L6.4,24.1 Z M11.2,2.5 C9.5,2.5 8.1,3.5 7.5,5 L2.7,16.6 C1.9,18.7 2.9,21 5,21.9 C5.5,22.1 6,22.2 6.5,22.2 C8.2,22.2 9.6,21.2 10.2,19.7 L14.9,8.1 C15.3,7.1 15.3,6 14.9,5 C14.5,4 13.7,3.2 12.7,2.8 C12.2,2.6 11.7,2.5 11.2,2.5 L11.2,2.5 Z" id="Shape" fill="#252626"></path>
        </g>
    </g>
</svg>