<?xml version="1.0" encoding="UTF-8" standalone="no"?>
<svg width="23px" height="20px" viewBox="0 0 23 20" version="1.1" xmlns="http://www.w3.org/2000/svg" xmlns:xlink="http://www.w3.org/1999/xlink">
    <!-- Generator: Sketch 3.8.1 (29687) - http://www.bohemiancoding.com/sketch -->
    <title>g3</title>
    <desc>Created with Sketch.</desc>
    <defs></defs>
    <g id="Page-1" stroke="none" stroke-width="1" fill="none" fill-rule="evenodd">
        <path d="M6.4,19.6 C4.5,19.6 2.8,18.8 1.6,17.3 C0.6,16 0.2,14.5 0.4,12.9 C0.6,11.3 1.4,9.9 2.7,8.9 L12.6,1.3 C13.7,0.5 14.9,-5.32907052e-15 16.3,-5.32907052e-15 C18.2,-5.32907052e-15 19.9,0.8 21.1,2.3 C23.1,4.9 22.6,8.7 20,10.7 L10.1,18.3 C9,19.2 7.7,19.6 6.4,19.6 L6.4,19.6 Z M16.2,1.9 C15.3,1.9 14.5,2.2 13.8,2.7 L3.9,10.3 C3.1,11 2.5,11.9 2.4,13 C2.3,14.1 2.5,15.1 3.2,16 C4,17 5.1,17.6 6.4,17.6 C7.3,17.6 8.1,17.3 8.8,16.8 L18.7,9.2 C20.5,7.8 20.8,5.3 19.4,3.6 C18.7,2.5 17.5,1.9 16.2,1.9 L16.2,1.9 Z" id="g3" fill="#252626"></path>
    </g>
</svg>