<?xml version="1.0" encoding="UTF-8" standalone="no"?>
<svg width="83px" height="68px" viewBox="0 0 83 68" version="1.1" xmlns="http://www.w3.org/2000/svg" xmlns:xlink="http://www.w3.org/1999/xlink">
    <!-- Generator: Sketch 3.8.1 (29687) - http://www.bohemiancoding.com/sketch -->
    <title>m2</title>
    <desc>Created with Sketch.</desc>
    <defs></defs>
    <g id="Page-1" stroke="none" stroke-width="1" fill="none" fill-rule="evenodd">
        <g id="m2">
            <path d="M72,8.2 C68.5,5.4 63.9,5.3 62.8,5.3 C62,5.3 57.2,5.4 53,8.6 C47.5,12.7 49.7,16.9 45.6,20.5 C39.6,25.8 32.1,19.3 17.8,24.2 C11.9,26.2 9.7,28.5 8.8,29.5 C3.6,35.4 4.7,43.4 4.9,44.4 C4.9,44.4 5.7,49.8 9.4,54.2 C17.5,63.9 36.2,65.3 50.4,59.7 C64.9,53.9 75.9,40.2 77.2,26.4 C77.4,23.2 78.3,13.1 72,8.2 L72,8.2 Z M17.1,47.9 C13.3,47.9 10.1,44.8 10.1,40.9 C10.1,37.1 13.2,33.9 17.1,33.9 C20.9,33.9 24.1,37 24.1,40.9 C24,44.8 20.9,47.9 17.1,47.9 L17.1,47.9 Z M50.4,51.9 C47.1,51.9 44.3,49.2 44.3,45.8 C44.3,42.5 47,39.7 50.4,39.7 C53.7,39.7 56.5,42.4 56.5,45.8 C56.4,49.2 53.7,51.9 50.4,51.9 L50.4,51.9 Z" id="Shape" fill="#F63137"></path>
            <path d="M32.8,64.4 L32.8,64.4 C22.1,64.4 13.2,61 8.3,55.1 C4.4,50.4 3.5,44.8 3.5,44.6 C3.2,43 2.3,34.7 7.7,28.4 C9.8,26 12.9,24.2 17.4,22.6 C21.5,21.2 25.4,20.6 29.6,20.6 C31.6,20.6 33.5,20.7 35.2,20.9 C36.6,21 37.9,21.1 39,21.1 C41.6,21.1 43.3,20.6 44.7,19.3 C46.2,17.9 46.7,16.5 47.2,14.8 C47.9,12.5 48.7,9.9 52.1,7.4 C56.5,4.1 61.4,3.8 62.8,3.8 C64.6,3.8 69.3,4.1 73,7 C79.9,12.4 79,23 78.6,26.5 C77.3,40.9 65.9,55.1 50.9,61.1 C45.3,63.3 39,64.4 32.8,64.4 L32.8,64.4 Z M29.5,23.7 C25.6,23.7 22,24.3 18.2,25.6 C14.3,26.9 11.5,28.6 9.8,30.5 C5.2,35.8 6,42.9 6.3,44.2 C6.3,44.2 7.1,49.2 10.5,53.2 C14.8,58.4 22.9,61.4 32.7,61.4 C38.6,61.4 44.5,60.3 49.7,58.2 C63.7,52.7 74.3,39.5 75.5,26.1 C75.8,23 76.7,13.7 71,9.3 C68,6.9 63.9,6.8 62.7,6.7 C61.5,6.7 57.4,6.9 53.8,9.7 C51.2,11.7 50.6,13.5 49.9,15.6 C49.3,17.5 48.7,19.6 46.5,21.5 C43.9,23.8 41.1,24.1 38.8,24.1 C37.5,24.1 36.2,24 34.8,23.9 C33.2,23.8 31.4,23.7 29.5,23.7 L29.5,23.7 Z" id="Shape" fill="#252626"></path>
            <path d="M17.1,48.9 C12.7,48.9 9.1,45.3 9.1,40.9 C9.1,36.5 12.7,32.9 17.1,32.9 C21.5,32.9 25.1,36.5 25.1,40.9 C25.1,45.3 21.4,48.9 17.1,48.9 L17.1,48.9 Z M17.1,35 C13.8,35 11.1,37.7 11.1,41 C11.1,44.3 13.8,47 17.1,47 C20.4,47 23.1,44.3 23.1,41 C23.1,37.7 20.3,35 17.1,35 L17.1,35 Z" id="Shape" fill="#252626"></path>
            <path d="M27.5,37.4 C24.8,37.4 22.7,35.2 22.7,32.6 C22.7,30 24.9,27.8 27.5,27.8 C30.2,27.8 32.3,30 32.3,32.6 C32.3,35.2 30.2,37.4 27.5,37.4 L27.5,37.4 Z M27.5,29.8 C26,29.8 24.7,31.1 24.7,32.6 C24.7,34.1 26,35.4 27.5,35.4 C29,35.4 30.3,34.1 30.3,32.6 C30.3,31.1 29.1,29.8 27.5,29.8 L27.5,29.8 Z" id="Shape" fill="#252626"></path>
            <path d="M50.4,52.9 C46.5,52.9 43.3,49.7 43.3,45.8 C43.3,41.9 46.5,38.7 50.4,38.7 C54.3,38.7 57.5,41.9 57.5,45.8 C57.5,49.7 54.3,52.9 50.4,52.9 L50.4,52.9 Z M50.4,40.7 C47.6,40.7 45.3,43 45.3,45.8 C45.3,48.6 47.6,50.9 50.4,50.9 C53.2,50.9 55.5,48.6 55.5,45.8 C55.4,43 53.2,40.7 50.4,40.7 L50.4,40.7 Z" id="Shape" fill="#252626"></path>
            <path d="M60.5,43.4 C57.7,43.4 55.4,41.1 55.4,38.3 C55.4,35.5 57.7,33.2 60.5,33.2 C63.3,33.2 65.6,35.5 65.6,38.3 C65.7,41.1 63.4,43.4 60.5,43.4 L60.5,43.4 Z M60.5,35.1 C58.8,35.1 57.4,36.5 57.4,38.2 C57.4,39.9 58.8,41.3 60.5,41.3 C62.2,41.3 63.6,39.9 63.6,38.2 C63.7,36.5 62.3,35.1 60.5,35.1 L60.5,35.1 Z" id="Shape" fill="#252626"></path>
            <path d="M59.8,19.9 C57.4,19.9 55.4,17.9 55.4,15.5 C55.4,13.1 57.4,11.1 59.8,11.1 C62.2,11.1 64.2,13.1 64.2,15.5 C64.2,17.9 62.2,19.9 59.8,19.9 L59.8,19.9 Z M59.8,13.1 C58.5,13.1 57.4,14.2 57.4,15.5 C57.4,16.8 58.5,17.9 59.8,17.9 C61.1,17.9 62.2,16.8 62.2,15.5 C62.2,14.2 61.1,13.1 59.8,13.1 L59.8,13.1 Z" id="Shape" fill="#252626"></path>
            <path d="M10.9,28.6 C10.5,28.6 10.2,28.4 10,28.1 L7.7,23.7 C7.4,23.2 7.6,22.6 8.1,22.4 C8.6,22.1 9.2,22.3 9.4,22.8 L11.7,27.2 C12,27.7 11.8,28.3 11.3,28.5 C11.2,28.5 11,28.6 10.9,28.6 L10.9,28.6 Z" id="Shape" fill="#252626"></path>
            <path d="M17.8,25.1 C17.3,25.1 16.9,24.8 16.8,24.3 L16.1,20.4 C16,19.9 16.4,19.3 16.9,19.2 C17.4,19.1 18,19.5 18.1,20 L18.8,23.9 C18.9,24.4 18.5,25 18,25.1 L17.8,25.1 L17.8,25.1 Z" id="Shape" fill="#252626"></path>
            <path d="M1.4,50.5 C1,50.5 0.7,50.3 0.5,49.9 C0.3,49.4 0.5,48.8 0.9,48.6 L4.2,47 C4.7,46.8 5.3,47 5.5,47.4 C5.7,47.9 5.5,48.5 5.1,48.7 L1.8,50.3 C1.7,50.5 1.5,50.5 1.4,50.5 L1.4,50.5 Z" id="Shape" fill="#252626"></path>
            <path d="M18.8,66.9 C18.7,66.9 18.5,66.9 18.4,66.8 C17.9,66.6 17.7,66 17.9,65.5 L19.9,60.8 C20.1,60.3 20.7,60.1 21.2,60.3 C21.7,60.5 21.9,61.1 21.7,61.6 L19.7,66.3 C19.6,66.7 19.2,66.9 18.8,66.9 L18.8,66.9 Z" id="Shape" fill="#252626"></path>
            <path d="M12.7,63.9 C12.5,63.9 12.3,63.8 12.2,63.7 C11.7,63.4 11.6,62.8 11.9,62.3 L14.5,58.3 C14.8,57.8 15.4,57.7 15.9,58 C16.4,58.3 16.5,58.9 16.2,59.4 L13.6,63.4 C13.3,63.8 13,63.9 12.7,63.9 L12.7,63.9 Z" id="Shape" fill="#252626"></path>
            <path d="M37.8,67.9 C37.3,67.9 36.8,67.5 36.8,67 L36.6,63 C36.6,62.4 37,62 37.5,62 C38,62 38.5,62.4 38.5,62.9 L38.7,66.9 C38.9,67.4 38.4,67.9 37.8,67.9 L37.8,67.9 L37.8,67.9 Z" id="Shape" fill="#252626"></path>
            <path d="M53.2,63.9 C52.8,63.9 52.4,63.6 52.2,63.2 L51,59.2 C50.8,58.7 51.1,58.1 51.7,58 C52.2,57.8 52.8,58.1 52.9,58.7 L54.1,62.7 C54.3,63.2 54,63.8 53.4,63.9 L53.2,63.9 L53.2,63.9 Z" id="Shape" fill="#252626"></path>
            <path d="M57.7,59.9 C57.3,59.9 57,59.7 56.8,59.4 L55.5,57.1 C55.2,56.6 55.4,56 55.9,55.7 C56.4,55.4 57,55.6 57.3,56.1 L58.6,58.4 C58.9,58.9 58.7,59.5 58.2,59.8 C58,59.9 57.9,59.9 57.7,59.9 L57.7,59.9 Z" id="Shape" fill="#252626"></path>
            <path d="M64.7,57.6 C64.4,57.6 64.2,57.5 64,57.3 L60.7,53.9 C60.3,53.5 60.3,52.9 60.7,52.5 C61.1,52.1 61.7,52.1 62.1,52.5 L65.4,55.9 C65.8,56.3 65.8,56.9 65.4,57.3 C65.2,57.5 64.9,57.6 64.7,57.6 L64.7,57.6 Z" id="Shape" fill="#252626"></path>
            <path d="M76.1,43.4 C76,43.4 75.9,43.4 75.8,43.3 L71.8,41.9 C71.3,41.7 71,41.1 71.2,40.6 C71.4,40.1 72,39.8 72.5,40 L76.5,41.4 C77,41.6 77.3,42.2 77.1,42.7 C76.9,43.1 76.5,43.4 76.1,43.4 L76.1,43.4 Z" id="Shape" fill="#252626"></path>
            <path d="M77.3,39.2 C77.2,39.2 77.1,39.2 77,39.1 L73.8,38 C73.3,37.8 73,37.2 73.2,36.7 C73.4,36.2 74,35.9 74.5,36.1 L77.7,37.2 C78.2,37.4 78.5,38 78.3,38.5 C78.1,39 77.7,39.2 77.3,39.2 L77.3,39.2 Z" id="Shape" fill="#252626"></path>
            <path d="M77.3,18.9 C76.9,18.9 76.5,18.6 76.3,18.2 C76.2,17.7 76.5,17.1 77,17 L81,15.9 C81.5,15.8 82.1,16.1 82.2,16.6 C82.3,17.1 82,17.7 81.5,17.8 L77.5,18.9 L77.3,18.9 L77.3,18.9 Z" id="Shape" fill="#252626"></path>
            <path d="M76.1,15.1 C75.7,15.1 75.3,14.9 75.2,14.5 C75,14 75.2,13.4 75.7,13.2 L78.9,11.9 C79.4,11.7 80,11.9 80.2,12.4 C80.4,12.9 80.2,13.5 79.7,13.7 L76.5,15 C76.4,15.1 76.3,15.1 76.1,15.1 L76.1,15.1 Z" id="Shape" fill="#252626"></path>
            <path d="M59.3,6.3 C58.8,6.3 58.4,6 58.3,5.5 L57.5,1.5 C57.4,1 57.7,0.4 58.3,0.3 C58.8,0.2 59.4,0.5 59.5,1.1 L60.3,5.1 C60.4,5.6 60.1,6.2 59.5,6.3 L59.3,6.3 L59.3,6.3 Z" id="Shape" fill="#252626"></path>
            <path d="M62.8,6.3 L62.8,6.3 C62.2,6.3 61.8,5.8 61.8,5.2 L62,1.2 C62,0.6 62.5,0.2 63.1,0.3 C63.7,0.3 64.1,0.8 64,1.4 L63.8,5.4 C63.8,5.9 63.4,6.3 62.8,6.3 L62.8,6.3 Z" id="Shape" fill="#252626"></path>
            <path d="M51.3,10 C51.1,10 50.8,9.9 50.6,9.8 L48.7,8.2 C48.3,7.8 48.2,7.2 48.6,6.8 C49,6.4 49.6,6.3 50,6.7 L51.9,8.3 C52.3,8.7 52.4,9.3 52,9.7 C51.8,9.9 51.6,10 51.3,10 L51.3,10 Z" id="Shape" fill="#252626"></path>
        </g>
    </g>
</svg>