<?xml version="1.0" encoding="UTF-8" standalone="no"?>
<svg width="25px" height="13px" viewBox="0 0 25 13" version="1.1" xmlns="http://www.w3.org/2000/svg" xmlns:xlink="http://www.w3.org/1999/xlink">
    <!-- Generator: Sketch 3.8.1 (29687) - http://www.bohemiancoding.com/sketch -->
    <title>s2</title>
    <desc>Created with Sketch.</desc>
    <defs></defs>
    <g id="Page-1" stroke="none" stroke-width="1" fill="none" fill-rule="evenodd">
        <path d="M23.9,12.4 L23.6,12.4 C21.9,11.9 21.4,10.3 21.1,9.1 C20.8,7.9 20.6,7.4 20,7.2 C19.4,7 19,7.4 18.1,8.3 C17.2,9.1 16,10.3 14.3,9.8 C12.6,9.3 12.1,7.7 11.8,6.5 C11.5,5.3 11.3,4.8 10.7,4.6 C10.1,4.4 9.7,4.8 8.8,5.7 C7.9,6.5 6.7,7.7 5,7.2 C3.3,6.7 2.8,5.1 2.5,3.9 C2.2,2.7 2,2.2 1.4,2 C0.9,1.9 0.6,1.3 0.7,0.8 C0.8,0.3 1.4,-1.31145095e-14 1.9,0.1 C3.6,0.6 4.1,2.2 4.4,3.4 C4.7,4.6 4.9,5.1 5.5,5.3 C6,5.5 6.5,5.1 7.4,4.2 C8.3,3.4 9.5,2.2 11.2,2.7 C12.9,3.2 13.4,4.8 13.7,6 C14,7.2 14.2,7.7 14.8,7.9 C15.4,8.1 15.8,7.7 16.7,6.8 C17.6,6 18.8,4.8 20.5,5.3 C22.2,5.8 22.7,7.4 23,8.6 C23.3,9.8 23.5,10.3 24.1,10.5 C24.6,10.6 24.9,11.2 24.8,11.7 C24.7,12.1 24.3,12.4 23.9,12.4 L23.9,12.4 Z" id="s2" fill="#252626"></path>
    </g>
</svg>