<?xml version="1.0" encoding="UTF-8" standalone="no"?>
<svg width="25px" height="15px" viewBox="0 0 25 15" version="1.1" xmlns="http://www.w3.org/2000/svg" xmlns:xlink="http://www.w3.org/1999/xlink">
    <!-- Generator: Sketch 3.8.1 (29687) - http://www.bohemiancoding.com/sketch -->
    <title>s3</title>
    <desc>Created with Sketch.</desc>
    <defs></defs>
    <g id="Page-1" stroke="none" stroke-width="1" fill="none" fill-rule="evenodd">
        <path d="M6.6,14.9 C5.7,14.9 4.8,14.5 4.1,14.2 C3,13.7 2.4,13.5 2,13.8 C1.5,14.1 0.9,14 0.6,13.5 C0.3,13 0.4,12.4 0.9,12.1 C2.4,11.1 3.9,11.8 5,12.3 C6.1,12.8 6.7,13 7.1,12.7 C7.6,12.4 7.6,11.8 7.5,10.6 C7.4,9.4 7.3,7.7 8.8,6.7 C10.3,5.7 11.8,6.4 12.9,6.9 C14,7.4 14.6,7.6 15,7.3 C15.5,7 15.5,6.4 15.4,5.2 C15.3,4 15.2,2.3 16.7,1.3 C18.2,0.3 19.7,1 20.8,1.5 C21.9,2 22.5,2.2 22.9,1.9 C23.4,1.6 24,1.7 24.3,2.2 C24.6,2.7 24.5,3.3 24,3.6 C22.5,4.6 21,3.9 19.9,3.4 C18.8,2.9 18.2,2.7 17.8,3 C17.3,3.3 17.3,3.9 17.4,5.1 C17.5,6.3 17.6,8 16.1,9 C14.6,10 13.1,9.3 12,8.8 C10.9,8.3 10.3,8.1 9.9,8.4 C9.4,8.7 9.4,9.3 9.5,10.5 C9.6,11.7 9.7,13.4 8.2,14.4 C7.7,14.8 7.2,14.9 6.6,14.9 L6.6,14.9 Z" id="s3" fill="#252626"></path>
    </g>
</svg>