<?xml version="1.0" encoding="UTF-8" standalone="no"?>
<svg width="24px" height="34px" viewBox="0 0 24 34" version="1.1" xmlns="http://www.w3.org/2000/svg" xmlns:xlink="http://www.w3.org/1999/xlink">
    <!-- Generator: Sketch 3.8.1 (29687) - http://www.bohemiancoding.com/sketch -->
    <title>sklyan3</title>
    <desc>Created with Sketch.</desc>
    <defs></defs>
    <g id="Page-1" stroke="none" stroke-width="1" fill="none" fill-rule="evenodd">
        <g id="sklyan3">
            <path d="M17.5,7.1 L6,7.1 C5.7,7.1 5.4,6.8 5.4,6.5 L5.4,1.5 C5.4,1.3 5.7,1 6,1 L17.5,1 C17.8,1 18.1,1.3 18.1,1.6 L18.1,6.6 C18.1,6.9 17.8,7.1 17.5,7.1 L17.5,7.1 Z" id="Shape" fill="#F63137"></path>
            <path d="M15.4,33.3 L8,33.3 C3.7,33.3 0.2,29.8 0.2,25.5 L0.2,15.1 C0.2,10.8 3.7,7.3 8,7.3 L15.4,7.3 C19.7,7.3 23.2,10.8 23.2,15.1 L23.2,25.6 C23.2,29.9 19.7,33.3 15.4,33.3 L15.4,33.3 Z M8.1,10.3 C5.5,10.3 3.3,12.4 3.3,15.1 L3.3,25.6 C3.3,28.2 5.4,30.4 8.1,30.4 L15.5,30.4 C18.1,30.4 20.3,28.3 20.3,25.6 L20.3,15.1 C20.3,12.5 18.2,10.3 15.5,10.3 L8.1,10.3 L8.1,10.3 Z" id="Shape" fill="#252626"></path>
            <path d="M17.5,8.1 L6,8.1 C5.1,8.1 4.4,7.4 4.4,6.5 L4.4,1.5 C4.4,0.7 5.1,0 6,0 L17.5,0 C18.4,0 19.1,0.7 19.1,1.6 L19.1,6.6 C19.1,7.4 18.3,8.1 17.5,8.1 L17.5,8.1 Z M6.4,6.1 L17,6.1 L17,2 L6.4,2 L6.4,6.1 L6.4,6.1 Z" id="Shape" fill="#252626"></path>
            <path d="M6.7,25.4 C6.1,25.4 5.7,25 5.7,24.4 L5.7,15.8 C5.7,15.2 6.1,14.8 6.7,14.8 C7.3,14.8 7.7,15.2 7.7,15.8 L7.7,24.4 C7.7,25 7.2,25.4 6.7,25.4 L6.7,25.4 Z" id="Shape" fill="#252626"></path>
        </g>
    </g>
</svg>