<?xml version="1.0" encoding="UTF-8" standalone="no"?>
<svg width="99px" height="85px" viewBox="0 0 99 85" version="1.1" xmlns="http://www.w3.org/2000/svg" xmlns:xlink="http://www.w3.org/1999/xlink">
    <!-- Generator: Sketch 3.8.1 (29687) - http://www.bohemiancoding.com/sketch -->
    <title>salfet</title>
    <desc>Created with Sketch.</desc>
    <defs></defs>
    <g id="Page-1" stroke="none" stroke-width="1" fill="none" fill-rule="evenodd">
        <g id="salfet" transform="translate(1.000000, 1.000000)">
            <polygon id="Shape" fill="#F63137" points="31.8 39.9 19.4 48.6 77.2 48.6 81.8 41.5 77.7 35.4 87.9 19.2 62.7 5.2 63.4 12.3 51.5 12.6 40.4 0.9 21.1 11.4 34.2 23.7 28.5 28.5"></polygon>
            <polygon id="Shape" stroke="#252626" stroke-width="3" fill="#FFFFFF" points="1 49 18 49 96 49 96 82 1 82"></polygon>
            <polygon id="Shape" stroke="#252626" stroke-width="3" points="31.8 39.9 19.4 48.6 77.2 48.6 81.8 41.5 77.7 35.4 87.9 19.2 62.7 5.2 63.4 12.3 51.5 12.6 40.4 0.9 21.1 11.4 34.2 23.7 28.5 28.5"></polygon>
            <path d="M86.8,51.7 L95.6,48.6" id="Shape" stroke="#252626" stroke-width="2" stroke-linecap="round"></path>
            <path d="M82.3,53.2 L86.8,51.7" id="Shape" stroke="#252626" stroke-width="2" stroke-linecap="round"></path>
            <path d="M77.6,54.9 L82.3,53.2" id="Shape" stroke="#252626" stroke-width="2" stroke-linecap="round"></path>
            <path d="M67.2,58.5 L72.6,56.6" id="Shape" stroke="#252626" stroke-width="2" stroke-linecap="round"></path>
            <path d="M54.5,62.9 L61.6,60.4" id="Shape" stroke="#252626" stroke-width="2" stroke-linecap="round"></path>
            <path d="M33.9,70 L41.3,67.5" id="Shape" stroke="#252626" stroke-width="2" stroke-linecap="round"></path>
            <path d="M23.3,73.7 L27.8,72.1" id="Shape" stroke="#252626" stroke-width="2" stroke-linecap="round"></path>
            <path d="M0.5,81.6 L18.8,75.2" id="Shape" stroke="#252626" stroke-width="2" stroke-linecap="round"></path>
            <polyline id="Shape" stroke="#252626" stroke-width="2" points="31.8 39.9 39.3 37.5 54.5 41.5 77.7 35.4"></polyline>
            <polyline id="Shape" stroke="#252626" stroke-width="2" points="34.9 23.7 44.9 27.7 54.8 23.7 67.8 25.2 63.4 12.3"></polyline>
        </g>
    </g>
</svg>