<?xml version="1.0" encoding="UTF-8" standalone="no"?>
<svg width="42px" height="93px" viewBox="0 0 42 93" version="1.1" xmlns="http://www.w3.org/2000/svg" xmlns:xlink="http://www.w3.org/1999/xlink">
    <!-- Generator: Sketch 3.8.1 (29687) - http://www.bohemiancoding.com/sketch -->
    <title>water</title>
    <desc>Created with Sketch.</desc>
    <defs></defs>
    <g id="Page-1" stroke="none" stroke-width="1" fill="none" fill-rule="evenodd">
        <path d="M41.5,27.1 C41.6,25.8 41.6,24.5 41.7,23.1 C41.9,19.3 41.1,15.5 39.2,12.2 L39.2,12.1 C32.4,12.1 26.3,9.6 21.6,7.8 C16,5.6 11.6,2.7 8.4,0.3 C7.4,1.4 6.3,2.6 5.3,3.7 C4.7,4.7 4,6.2 3.6,8 C3.3,9.1 3.2,10.1 3.2,11 C2.3,36.1 1.3,61.1 0.4,86.2 C0.3,89.6 3,92.5 6.5,92.5 L35.4,92.5 C38.9,92.5 41.7,89.5 41.4,86 C40.1,67.8 38.7,49.6 37.4,31.5 C38.8,30 40.2,28.5 41.5,27.1 L41.5,27.1 Z" id="water" fill="#F63137"></path>
    </g>
</svg>