<?xml version="1.0" encoding="UTF-8" standalone="no"?>
<svg width="72px" height="74px" viewBox="0 0 72 74" version="1.1" xmlns="http://www.w3.org/2000/svg" xmlns:xlink="http://www.w3.org/1999/xlink">
    <!-- Generator: Sketch 3.8.1 (29687) - http://www.bohemiancoding.com/sketch -->
    <title>little shest</title>
    <desc>Created with Sketch.</desc>
    <defs></defs>
    <g id="Page-1" stroke="none" stroke-width="1" fill="none" fill-rule="evenodd">
        <g id="little-shest" transform="translate(2.000000, 1.000000)">
            <path d="M61.2,38.9 C61.4,36.6 61.4,34.2 61,31.8 C60.6,29.4 59.9,27.1 59,25 L63.8,17.2 L58.6,10.8 L50,14 C46.2,11.3 41.7,9.5 36.9,9 L32.6,0.9 L24.5,2.2 L23,11.2 C18.6,13.2 14.9,16.3 12.1,20.1 L3,19.8 L0.1,27.5 L7.1,33.3 C6.9,35.6 6.9,38 7.3,40.4 C7.7,42.8 8.4,45.1 9.3,47.2 L4.5,55 L9.7,61.4 L18.3,58.2 C22.1,60.9 26.6,62.7 31.4,63.2 L35.7,71.3 L43.8,70 L45.3,61 C49.7,59 53.4,55.9 56.2,52.1 L65.3,52.4 L68.2,44.7 L61.2,38.9 L61.2,38.9 Z M37.1,54.4 C27.1,56 17.6,49.2 16,39.2 C14.4,29.2 21.2,19.7 31.2,18 C41.2,16.4 50.7,23.2 52.4,33.2 C53.9,43.3 47.1,52.8 37.1,54.4 L37.1,54.4 Z" id="Shape" fill="#FFFFFF"></path>
            <path d="M61,31.8 C60.6,29.4 59.9,27.1 59,25 L63.8,17.2 L58.6,10.8 L50,14 C46.2,11.3 41.7,9.5 36.9,9 L32.6,0.9 L24.5,2.2 L23,11.2 C18.6,13.2 14.9,16.3 12.1,20.1 L3,19.8 L0.1,27.5 L7.1,33.3 C6.9,35.6 6.9,38 7.3,40.4 C7.7,42.8 8.4,45.1 9.3,47.2 L4.5,55 L9.7,61.4 L18.3,58.2 C22.1,60.9 26.6,62.7 31.4,63.2 L35.7,71.3 L43.8,70 L45.3,61 C49.7,59 53.4,55.9 56.2,52.1 L65.3,52.4 L68.2,44.7 L61.2,38.9 C61.4,36.6 61.3,34.2 61,31.8 L61,31.8 Z" id="Shape" stroke="#252626" stroke-width="3"></path>
            <circle id="Oval" stroke="#252626" stroke-width="2" stroke-linecap="round" stroke-dasharray="6,4,9,6,3" cx="34.1" cy="36.2" r="18.4"></circle>
            <circle id="Oval" stroke="#252626" stroke-width="3" cx="34.1" cy="36.2" r="6.3"></circle>
        </g>
    </g>
</svg>