<?xml version="1.0" encoding="UTF-8" standalone="no"?>
<svg width="156px" height="48px" viewBox="0 0 156 48" version="1.1" xmlns="http://www.w3.org/2000/svg" xmlns:xlink="http://www.w3.org/1999/xlink">
    <!-- Generator: Sketch 3.8.1 (29687) - http://www.bohemiancoding.com/sketch -->
    <title>ch2</title>
    <desc>Created with Sketch.</desc>
    <defs></defs>
    <g id="Page-1" stroke="none" stroke-width="1" fill="none" fill-rule="evenodd">
        <g id="ch2">
            <polygon id="Shape" fill="#F63137" points="59.5 46.1 52.7 28.5 38.3 47.3 33.4 26.8 18.1 46.1 15 32 1.5 39.1 6.8 32.5 6.4 28.4 11.6 23.5 20.3 22.8 24.1 16 41.7 7.4 59.5 7 59.7 2.5 77.6 5.1 86 8.5 86 2.9 107.5 11.3 100.7 32 93.9 28.5 85.5 42.4 75 28.7"></polygon>
            <polygon id="Shape" fill="#F63137" points="116.1 31 134.4 40.3 153.6 46.5 142 36.5 144 32.5 130 20.1 127.3 24.8 108.6 8.5 99.3 32 116.1 43.4"></polygon>
            <path d="M153.6,48 C153.3,48 152.9,47.9 152.6,47.6 L141,37.6 C140.5,37.2 140.3,36.4 140.6,35.8 L142.3,32.4 L130.1,22.3 L128.4,24.5 C128.2,24.8 127.8,25 127.4,25.1 C127,25.1 126.6,25 126.3,24.8 L109.1,10.9 L108.4,12.5 C108.1,13.3 107.2,13.6 106.4,13.3 L87.5,4.8 L87.5,8.5 C87.5,9 87.3,9.5 86.8,9.7 C86.4,10 85.9,10 85.4,9.8 L77.1,6.5 L61.2,4.2 L61.2,7.3 C61.2,8.1 60.5,8.8 59.7,8.8 L42.1,8.8 L25.2,17.1 L21.7,23.4 C21.5,23.8 21,24.1 20.5,24.2 L12,25 L8.2,28.8 L9,31.1 C9.2,31.6 9.1,32.1 8.8,32.5 L2.8,39.9 C2.3,40.5 1.3,40.6 0.7,40.1 C0.1,39.6 7.77156117e-15,38.6 0.5,38 L6,31.2 L5,28.9 C4.8,28.4 4.9,27.8 5.4,27.3 L10.3,22.4 C10.6,22.1 10.9,22 11.2,22 L19.4,21.3 L22.8,15.2 C22.9,14.9 23.2,14.7 23.5,14.6 L41.1,6 C41.3,5.9 41.5,5.8 41.8,5.8 L58.3,5.8 L58.3,2.5 C58.3,2.1 58.5,1.6 58.8,1.4 C59.1,1.2 59.5,1 60,1 L77.8,3.6 C77.9,3.6 78,3.6 78.1,3.7 L84.5,6.3 L84.5,2.5 C84.5,2 84.8,1.5 85.2,1.2 C85.6,0.9 86.2,0.9 86.6,1.1 L106.3,9.9 L107.2,7.9 C107.4,7.5 107.8,7.2 108.2,7.1 C108.6,7 109.1,7.1 109.5,7.4 L127.1,21.5 L128.8,19.3 C129,19 129.4,18.8 129.8,18.7 C130.2,18.7 130.6,18.8 130.9,19 L145.2,30.9 C145.7,31.3 145.9,32.1 145.6,32.7 L143.9,36.2 L154.7,45.4 C155.3,45.9 155.4,46.9 154.9,47.5 C154.5,47.8 154,48 153.6,48 L153.6,48 Z" id="Shape" fill="#252626"></path>
            <path d="M84,31.8 C84,31.8 83.9,31.8 84,31.8 C83.4,31.7 83,31.3 83,30.7 L83.9,20.5 C84,19.9 84.4,19.6 85,19.6 C85.5,19.7 86,20.1 85.9,20.7 L85,30.9 C84.9,31.4 84.5,31.8 84,31.8 L84,31.8 Z" id="Shape" fill="#252626"></path>
            <path d="M85.5,15 L85.5,15 C84.9,14.9 84.5,14.5 84.5,13.9 L85,8.4 C85,7.8 85.5,7.5 86.1,7.5 C86.6,7.6 87.1,8 87,8.6 L86.5,14.1 C86.5,14.6 86,15 85.5,15 L85.5,15 Z" id="Shape" fill="#252626"></path>
            <path d="M100.7,33 L100.4,33 C99.9,32.8 99.6,32.3 99.7,31.7 L106.1,11.5 C106.3,11 106.8,10.7 107.4,10.8 C107.9,11 108.2,11.5 108.1,12.1 L101.7,32.3 C101.5,32.8 101.1,33 100.7,33 L100.7,33 Z" id="Shape" fill="#252626"></path>
            <path d="M111.5,41.3 C111.4,41.3 111.2,41.3 111.1,41.2 C110.6,41 110.4,40.4 110.6,39.9 L115.5,29.8 L121.2,30.9 L126.5,22.9 C126.8,22.4 127.4,22.3 127.9,22.6 C128.4,22.9 128.5,23.5 128.2,24 L122.2,33.1 L116.7,32 L112.5,40.7 C112.2,41.1 111.9,41.3 111.5,41.3 L111.5,41.3 Z" id="Shape" fill="#252626"></path>
            <path d="M138,42.6 C137.8,42.6 137.6,42.5 137.4,42.4 C137,42.1 136.9,41.4 137.2,41 L141.2,35.9 C141.5,35.5 142.2,35.4 142.6,35.7 C143,36 143.1,36.7 142.8,37.1 L138.8,42.2 C138.6,42.5 138.3,42.6 138,42.6 L138,42.6 Z" id="Shape" fill="#252626"></path>
            <path d="M61.2,37.5 C60.7,37.5 60.2,37.1 60.2,36.5 L59.8,28.5 C59.8,27.9 60.2,27.5 60.7,27.5 C61.3,27.5 61.7,27.9 61.7,28.4 L62.1,36.4 C62.2,37 61.8,37.5 61.2,37.5 L61.2,37.5 L61.2,37.5 Z" id="Shape" fill="#252626"></path>
            <path d="M60.4,21.6 C59.9,21.6 59.4,21.2 59.4,20.6 L58.7,7.4 C58.7,6.8 59.1,6.4 59.7,6.4 C60.2,6.4 60.7,6.8 60.7,7.3 L61.4,20.5 C61.4,21.1 61,21.6 60.4,21.6 L60.4,21.6 L60.4,21.6 Z" id="Shape" fill="#252626"></path>
            <path d="M45.9,23 C45.5,23 45.1,22.7 44.9,22.3 L42.9,15 C42.7,14.5 43.1,13.9 43.6,13.8 C44.1,13.6 44.7,14 44.8,14.5 L46.9,21.8 C47.1,22.3 46.7,22.9 46.2,23 L45.9,23 L45.9,23 Z" id="Shape" fill="#252626"></path>
            <path d="M43.8,15.7 C43.4,15.7 43,15.4 42.8,15 L40.7,7.7 C40.5,7.2 40.9,6.6 41.4,6.5 C41.9,6.3 42.5,6.7 42.6,7.2 L44.7,14.5 C44.9,15 44.5,15.6 44,15.7 L43.8,15.7 L43.8,15.7 Z" id="Shape" fill="#252626"></path>
            <path d="M30.2,31.8 C29.8,31.8 29.4,31.6 29.3,31.2 L23.2,16.4 C23,15.9 23.2,15.3 23.7,15.1 C24.2,14.9 24.8,15.1 25,15.6 L31.1,30.4 C31.3,30.9 31.1,31.5 30.6,31.7 C30.5,31.8 30.3,31.8 30.2,31.8 L30.2,31.8 Z" id="Shape" fill="#252626"></path>
            <path d="M21.6,42.6 C21.3,42.6 20.9,42.4 20.7,42.1 L14.9,32.1 C14.6,31.6 14.8,31 15.3,30.7 C15.8,30.4 16.4,30.6 16.7,31.1 L22.5,41.1 C22.8,41.6 22.6,42.2 22.1,42.5 C22,42.6 21.8,42.6 21.6,42.6 L21.6,42.6 Z" id="Shape" fill="#252626"></path>
        </g>
    </g>
</svg>