<svg xmlns="http://www.w3.org/2000/svg" viewBox="0 0 41.5 50.1" width="36" height="44"><path fill="#F63137" d="M21.1.4h-.7L1 10.1l4.5 27.1 15.1 11.5h.2L36 37.3l4.5-27.2L21.1.4zm2.7 9.9L23 27.5h-4.3l-.9-17.2h6zm-3 26.1c-2.1 0-3.4-1.5-3.4-3.5s1.4-3.5 3.4-3.5 3.3 1.4 3.4 3.5c0 2-1.4 3.5-3.4 3.5z"/><path fill="#252626" d="M20.9 50.1c-.2 0-.4 0-.5-.1l-.2-.1s-.1 0-.1-.1L4.9 38.1c-.2-.2-.3-.4-.4-.6L0 10.6c-.1-.4.2-.9.5-1.1L20 .1c.1-.1.3-.1.4-.1h.7c.2 0 .3 0 .4.1l19.4 9.4c.4.2.6.6.5 1.1L37 37.7c0 .3-.2.5-.4.6L21.5 49.9c-.2.1-.4.2-.6.2zM6.4 36.8l14.4 11.1L35.1 37l4.3-26-18.5-9h-.2L2.1 11l4.3 25.8z"/><path fill="#252626" d="M20.8 37.4c-2.6 0-4.4-1.9-4.4-4.5 0-2.2 1.4-3.9 3.4-4.4h-1.2c-.5 0-1-.4-1-.9l-.9-17.2c0-.3.1-.5.3-.7.2-.2.5-.3.7-.3h6c.3 0 .5.1.7.3.2.2.3.5.3.7l-.8 17.2c0 .5-.5 1-1 1h-1.2c2 .4 3.4 2.1 3.4 4.3.1 2.6-1.8 4.5-4.3 4.5zm0-7c-1.4 0-2.4 1-2.4 2.5s1 2.5 2.4 2.5 2.4-1 2.4-2.5c-.1-1.5-1-2.5-2.4-2.5zm-1.2-3.9H22l.7-15.2h-3.9l.8 15.2z"/></svg>