<?xml version="1.0" encoding="UTF-8" standalone="no"?>
<svg width="33px" height="46px" viewBox="0 0 33 46" version="1.1" xmlns="http://www.w3.org/2000/svg" xmlns:xlink="http://www.w3.org/1999/xlink">
    <!-- Generator: Sketch 3.8.1 (29687) - http://www.bohemiancoding.com/sketch -->
    <title>list 1</title>
    <desc>Created with Sketch.</desc>
    <defs></defs>
    <g id="Page-1" stroke="none" stroke-width="1" fill="none" fill-rule="evenodd" stroke-linecap="round">
        <g id="list-1" transform="translate(2.000000, 2.000000)" stroke="#252626">
            <path d="M29.0224041,-7.10542736e-15 C28.5224041,0.9 27.6224041,2.2 26.2224041,3.3 C24.2224041,5 22.1224041,5.4 20.6224041,5.9 C15.6224041,7.3 11.7224041,9.1 11.1224041,9.5 C4.12240409,12.9 1.92240409,22 0.922404086,26 C-0.577595914,32.3 0.0224040861,37.9 0.822404086,41.6 C2.42240409,41 6.72240409,39.5 8.32240409,38.9 C19.3224041,34.9 20.2224041,34.6 21.2224041,34 C23.9224041,32.3 28.4224041,27.9 29.2224041,14.9" id="Shape" stroke-width="3"></path>
            <path d="M2,40.1 C2.9,34.6 4.8,30.8 6.3,28.4 C8.5,24.9 13.4,18.7 20.6,14.1 C22.5,12.9 25.1,11.5 27.1,8.3 C28.6,6 29.3,3.6 29.5,2" id="Shape" stroke-width="2"></path>
        </g>
    </g>
</svg>